<svg width="16" height="11" viewBox="0 0 16 11" fill="none" xmlns="http://www.w3.org/2000/svg">
<path d="M7.96429 11C5.95 11 3.94286 11 1.92857 11C0.721429 11 0 10.2714 0 9.06429C0 6.68571 0 4.3 0 1.92143C0 0.735714 0.728572 0 1.90714 0C5.96429 0 10.0286 0 14.0857 0C15.2714 0 16 0.735714 16 1.92143C16 4.31429 16 6.70714 16 9.1C16 10.2643 15.2643 11 14.1071 11C12.0571 11 10.0143 11 7.96429 11ZM1.01429 3.75714C1.00714 3.9 1 4 1 4.10714C1 5.76429 1 7.41429 1 9.07143C1 9.73571 1.27143 10 1.92857 10C5.97143 10 10.0214 10 14.0643 10C14.7286 10 14.9929 9.72857 14.9929 9.07143C14.9929 7.41429 14.9929 5.76429 14.9929 4.10714C14.9929 3.99286 14.9857 3.87857 14.9786 3.75714C10.3143 3.75714 5.68571 3.75714 1.01429 3.75714ZM15 2.72857C15 2.47143 15 2.23571 15 2.00714C15 1.24286 14.7571 1 14 1C10 1 6.00714 1 2.00714 1C1.9 1 1.79286 0.992857 1.68571 1.00714C1.34286 1.05 1.07857 1.23571 1.03571 1.57143C0.985714 1.95 1.02143 2.34286 1.02143 2.72857C5.69286 2.72857 10.3286 2.72857 15 2.72857Z" fill="#FE7B3D"/>
<path d="M2.5 7.75714C2.5 7.15 2.65 7 3.25 7C3.85 7 4 7.15 4 7.75714C4 8.34286 3.84286 8.49286 3.26429 8.49286C2.65 8.5 2.5 8.35 2.5 7.75714Z" fill="#FE7B3D"/>
</svg>
