<svg width="18" height="20" viewBox="0 0 18 20" fill="none" xmlns="http://www.w3.org/2000/svg">
<path d="M13.6326 9.67218C13.5736 12.2514 11.508 14.2445 8.91133 14.2445C6.43264 14.1859 4.30805 12.0756 4.42608 9.61356C4.4851 7.03432 6.60969 4.98265 9.14739 5.04126C11.6261 5.09988 13.6917 7.21017 13.6326 9.67218ZM12.2162 8.91013C12.0392 8.4998 11.8621 8.14808 11.6851 7.85498C11.331 7.26879 11.272 7.32741 10.9179 7.79637C10.6818 8.14808 10.2687 8.2067 9.97362 8.03084C9.61952 7.85498 9.56051 7.44465 9.73756 7.03432C9.79657 6.85846 9.91461 6.74122 9.97362 6.62398C9.38346 6.33089 8.67526 6.33089 8.14411 6.62398C8.26215 6.85846 8.38018 7.03432 8.4392 7.26879C8.4392 7.50327 8.38018 7.79637 8.26215 7.9136C8.0851 8.03084 7.79002 8.08946 7.55395 8.03084C7.3769 7.97222 7.19985 7.73775 7.08182 7.50327C6.96379 7.26879 6.84575 7.26879 6.6687 7.44465C6.31461 7.85498 6.07854 8.26532 5.96051 8.85151C6.49166 8.91013 7.19985 8.79289 7.19985 9.55494C7.19985 10.3756 6.49165 10.2584 5.84247 10.317C6.07854 10.7273 6.25559 11.1377 6.49165 11.4894C6.78674 11.9583 6.84575 11.9583 7.19985 11.4894C7.43592 11.1377 7.84903 11.0204 8.14411 11.1963C8.49821 11.3721 8.61625 11.7825 8.38018 12.1928C8.32116 12.31 8.20313 12.4859 8.14411 12.6031C8.67526 12.8962 9.56051 12.8962 9.91461 12.6031C9.85559 12.4273 9.73756 12.2514 9.67854 12.0756C9.56051 11.7239 9.67854 11.3721 9.97362 11.1963C10.2687 11.0204 10.6228 11.1377 10.8589 11.4308C10.9179 11.548 10.9769 11.6066 11.0359 11.7239C11.154 11.8997 11.272 11.9583 11.39 11.7825C11.7441 11.3721 12.0392 10.9618 12.1572 10.3756C11.6261 10.317 10.9179 10.4928 10.9179 9.67218C10.8589 8.79289 11.6261 8.96875 12.2162 8.91013Z" fill="white"/>
<path d="M3.18689 2.81403C7.02295 2.81403 10.918 2.81403 14.7541 2.81403C16.0525 2.81403 16.5836 3.34161 16.5836 4.63123C16.5836 6.91738 16.5836 9.20352 16.5836 11.4897C16.5836 12.0172 16.8787 12.3103 17.2918 12.3103C17.7049 12.3103 18 11.9586 18 11.4897C18 9.02767 18 6.62428 18 4.16227C18 2.75541 16.7016 1.46579 15.2852 1.46579C11.0951 1.46579 6.90492 1.46579 2.77377 1.46579C1.29836 1.40717 0 2.69679 0 4.10365C0 7.79666 0 11.4897 0 15.1241C0 16.2964 0.885246 17.4102 2.06557 17.7033C2.24262 17.7619 2.41967 17.7619 2.59672 17.8205H15.3443C15.4033 17.8205 15.4623 17.8205 15.5213 17.8205C16.8197 17.6447 17.941 16.4723 17.941 15.2413C17.941 14.7723 17.7049 14.4206 17.3508 14.362C16.9377 14.3034 16.6426 14.5965 16.5836 15.0654C16.4066 16.0034 15.9344 16.4137 14.9311 16.4137C10.977 16.4137 6.96393 16.4137 3.00984 16.4137C1.94754 16.4137 1.41639 15.8275 1.41639 14.831C1.41639 14.0103 1.41639 13.1896 1.41639 12.369C1.41639 12.2517 1.41639 12.1345 1.47541 12.0759V10.2587C1.47541 9.78972 1.47541 9.438 1.47541 8.96905V7.09323C1.41639 6.976 1.41639 6.85876 1.41639 6.6829C1.47541 5.97947 1.41639 5.27604 1.41639 4.51399C1.41639 3.34161 1.94754 2.81403 3.18689 2.81403Z" fill="white"/>
<path d="M2.83275 17.9375C2.83275 18.1134 2.83275 18.2892 2.83275 18.4651C2.83275 18.9927 3.12783 19.2858 3.65897 19.2858C4.07209 19.2858 4.4852 19.2858 4.8393 19.2858C5.25242 19.2858 5.5475 18.9927 5.60652 18.5823C5.60652 18.3479 5.60652 18.172 5.60652 17.9375C7.90816 17.9375 10.0918 17.9375 12.3344 17.9375C12.3344 18.172 12.3344 18.3479 12.3344 18.4651C12.3344 18.9927 12.6295 19.2858 13.1606 19.2858C13.5737 19.2858 13.9868 19.2858 14.3409 19.2858C14.8131 19.2858 15.1082 18.9927 15.1082 18.5237C15.1082 18.3479 15.1082 18.1134 15.1082 17.8789C15.1672 17.8789 15.2262 17.8789 15.2852 17.8789H2.59668C2.6557 17.8789 2.71471 17.8789 2.83275 17.9375Z" fill="white"/>
<path d="M15.1672 1.34824C15.1672 1.17238 15.1672 0.996526 15.1672 0.820669C15.1672 0.293096 14.8722 0 14.341 0C13.9279 0 13.5148 0 13.1607 0C12.6885 0 12.3935 0.293096 12.3935 0.70343C12.3935 0.937907 12.3935 1.11376 12.3935 1.34824C10.0918 1.34824 7.90822 1.34824 5.6656 1.34824C5.6656 1.11376 5.6656 0.937907 5.6656 0.820669C5.60658 0.293096 5.3115 0 4.78035 0C4.36724 0 3.95412 0 3.60002 0C3.12789 0 2.83281 0.293096 2.83281 0.762049C2.83281 0.937907 2.83281 1.17238 2.83281 1.40686C2.77379 1.40686 2.71478 1.40686 2.65576 1.40686H15.4623C15.3443 1.40686 15.2853 1.34824 15.1672 1.34824Z" fill="white"/>
</svg>
