<svg width="15" height="13" viewBox="0 0 15 13" fill="none" xmlns="http://www.w3.org/2000/svg">
<g clip-path="url(#clip0_508_2479)">
<path d="M7.48061 13.0005C5.55303 13.0005 3.63309 13.0005 1.7055 13.0005C0.680513 13.0005 0.00738667 12.305 -0.000262484 11.2461C-0.00791164 8.90686 -0.000262484 6.55975 -0.000262484 4.22054C-0.000262484 3.35914 0.481635 2.74273 1.27715 2.52935C3.38067 1.96826 5.48418 1.39136 7.5877 0.822361C8.48265 0.577376 9.37761 0.308683 10.2802 0.0716012C11.1675 -0.165481 11.9554 0.277072 12.2537 1.17008C12.3684 1.5178 12.4602 1.87342 12.5367 2.22905C12.5826 2.43452 12.6744 2.49774 12.8733 2.49774C13.1869 2.49774 13.5158 2.49774 13.8218 2.56887C14.5102 2.74273 14.9844 3.36704 14.9844 4.09409C14.9921 6.51233 14.9997 8.93847 14.9844 11.3567C14.9768 12.305 14.2654 12.9847 13.3169 12.9926C11.374 13.0005 9.4235 13.0005 7.48061 13.0005ZM13.9212 5.80899C13.9212 5.2795 13.9212 4.80534 13.9212 4.33118C13.9212 3.78589 13.7376 3.59622 13.2098 3.59622C9.40055 3.59622 5.58362 3.59622 1.77434 3.59622C1.26185 3.59622 1.07062 3.79379 1.07062 4.33908C1.07062 6.60716 1.07062 8.86734 1.07062 11.1354C1.07062 11.7044 1.2542 11.8941 1.79729 11.8941C3.76312 11.8941 5.72131 11.8941 7.68714 11.8941C9.53824 11.8941 11.3817 11.8941 13.2328 11.8941C13.6535 11.8941 13.8983 11.7202 13.9136 11.3646C13.9365 10.8193 13.9212 10.2661 13.9212 9.68133C13.7606 9.68133 13.6382 9.68133 13.5158 9.68133C12.4296 9.68133 11.3511 9.68133 10.2649 9.68133C9.56119 9.68133 9.11753 9.22297 9.10988 8.50382C9.10224 8.06917 9.10988 7.63452 9.10988 7.19987C9.10988 6.20412 9.49234 5.80899 10.4408 5.80899C11.5806 5.80899 12.7279 5.80899 13.9212 5.80899ZM10.1961 8.54333C11.4505 8.54333 12.6744 8.54333 13.8983 8.54333C13.8983 7.99014 13.8983 7.45276 13.8983 6.93118C12.6514 6.93118 11.4352 6.93118 10.1961 6.93118C10.1961 7.47646 10.1961 7.99014 10.1961 8.54333ZM5.92783 2.42662C5.92783 2.44242 5.93548 2.45032 5.93548 2.46613C7.77128 2.46613 9.60708 2.46613 11.4811 2.46613C11.4123 2.18953 11.3664 1.95245 11.2975 1.71537C11.1446 1.16218 10.9304 1.03573 10.3949 1.18589C9.56883 1.40716 8.75037 1.63634 7.92426 1.86552C7.26644 2.04729 6.59331 2.23695 5.92783 2.42662Z" fill="#FD7A3C"/>
</g>
<defs>
<clipPath id="clip0_508_2479">
<rect width="15" height="13" fill="white"/>
</clipPath>
</defs>
</svg>
