<svg width="38" height="38" viewBox="0 0 38 38" fill="none" xmlns="http://www.w3.org/2000/svg">
<circle cx="19" cy="19" r="19" fill="url(#paint0_linear_508_2477)" fill-opacity="0.2"/>
<g clip-path="url(#clip0_508_2477)">
<path d="M18.4806 25.0005C16.553 25.0005 14.6331 25.0005 12.7055 25.0005C11.6805 25.0005 11.0074 24.305 10.9997 23.2461C10.9921 20.9069 10.9997 18.5597 10.9997 16.2205C10.9997 15.3591 11.4816 14.7427 12.2771 14.5294C14.3807 13.9683 16.4842 13.3914 18.5877 12.8224C19.4827 12.5774 20.3776 12.3087 21.2802 12.0716C22.1675 11.8345 22.9554 12.2771 23.2537 13.1701C23.3684 13.5178 23.4602 13.8734 23.5367 14.229C23.5826 14.4345 23.6744 14.4977 23.8733 14.4977C24.1869 14.4977 24.5158 14.4977 24.8218 14.5689C25.5102 14.7427 25.9844 15.367 25.9844 16.0941C25.9921 18.5123 25.9997 20.9385 25.9844 23.3567C25.9768 24.305 25.2654 24.9847 24.3169 24.9926C22.374 25.0005 20.4235 25.0005 18.4806 25.0005ZM24.9212 17.809C24.9212 17.2795 24.9212 16.8053 24.9212 16.3312C24.9212 15.7859 24.7376 15.5962 24.2098 15.5962C20.4006 15.5962 16.5836 15.5962 12.7743 15.5962C12.2618 15.5962 12.0706 15.7938 12.0706 16.3391C12.0706 18.6072 12.0706 20.8673 12.0706 23.1354C12.0706 23.7044 12.2542 23.8941 12.7973 23.8941C14.7631 23.8941 16.7213 23.8941 18.6871 23.8941C20.5382 23.8941 22.3817 23.8941 24.2328 23.8941C24.6535 23.8941 24.8983 23.7202 24.9136 23.3646C24.9365 22.8193 24.9212 22.2661 24.9212 21.6813C24.7606 21.6813 24.6382 21.6813 24.5158 21.6813C23.4296 21.6813 22.3511 21.6813 21.2649 21.6813C20.5612 21.6813 20.1175 21.223 20.1099 20.5038C20.1022 20.0692 20.1099 19.6345 20.1099 19.1999C20.1099 18.2041 20.4923 17.809 21.4408 17.809C22.5806 17.809 23.7279 17.809 24.9212 17.809ZM21.1961 20.5433C22.4505 20.5433 23.6744 20.5433 24.8983 20.5433C24.8983 19.9901 24.8983 19.4528 24.8983 18.9312C23.6514 18.9312 22.4352 18.9312 21.1961 18.9312C21.1961 19.4765 21.1961 19.9901 21.1961 20.5433ZM16.9278 14.4266C16.9278 14.4424 16.9355 14.4503 16.9355 14.4661C18.7713 14.4661 20.6071 14.4661 22.4811 14.4661C22.4123 14.1895 22.3664 13.9525 22.2975 13.7154C22.1446 13.1622 21.9304 13.0357 21.3949 13.1859C20.5688 13.4072 19.7504 13.6363 18.9243 13.8655C18.2664 14.0473 17.5933 14.237 16.9278 14.4266Z" fill="#FD7A3C"/>
</g>
<defs>
<linearGradient id="paint0_linear_508_2477" x1="0" y1="0" x2="38" y2="38" gradientUnits="userSpaceOnUse">
<stop stop-color="#FD7B3D"/>
<stop offset="1" stop-color="#FEB556"/>
</linearGradient>
<clipPath id="clip0_508_2477">
<rect width="15" height="13" fill="white" transform="translate(11 12)"/>
</clipPath>
</defs>
</svg>
