<svg width="31" height="27" viewBox="0 0 31 27" fill="none" xmlns="http://www.w3.org/2000/svg">
<path d="M4.0596 13.2462C3.51247 13.2462 3.05653 13.2462 2.60058 13.2462C2.05345 13.2462 1.59751 13.0826 1.41514 12.5918C1.23276 12.101 1.50632 11.7738 1.87108 11.4466C4.51554 9.15624 7.25118 6.78405 9.89564 4.49367C10.8075 3.67567 11.8106 2.85768 12.7225 2.03968C14.2727 0.649091 16.1876 0.649091 17.7378 2.12148C18.3762 2.69408 19.0145 3.26667 19.6528 3.92107C20.1999 2.69408 20.1999 2.61228 21.6589 2.61228C22.7532 2.61228 23.8474 2.61228 24.9417 2.61228C25.9448 2.61228 26.3095 2.93948 26.3095 3.83927C26.3095 5.55706 26.3095 7.35665 26.3095 9.07444C26.3095 9.31983 26.4919 9.64703 26.6743 9.89243C27.3126 10.465 27.9509 11.0376 28.5892 11.5284C28.954 11.8556 29.1364 12.1828 28.954 12.5918C28.7716 13.0826 28.4069 13.2462 27.8597 13.2462C27.4038 13.2462 26.9478 13.2462 26.4007 13.2462C26.4007 13.4098 26.4007 13.6552 26.4007 13.8188C26.4007 14.8822 26.4007 15.9456 26.4007 17.009C26.4007 17.6634 25.9448 18.0724 25.3976 18.0724C24.7593 18.0724 24.3034 17.6634 24.3034 17.009C24.3034 15.9456 24.3034 14.964 24.3034 13.9006C24.3034 13.6552 24.3034 13.4916 24.3034 13.2462C18.285 13.2462 12.3577 13.2462 6.43049 13.2462C6.43049 13.4098 6.43049 13.6552 6.43049 13.8188C6.43049 16.4364 6.43049 19.054 6.43049 21.6716C6.43049 23.2257 7.25118 23.9619 8.98376 23.9619C9.71327 23.9619 10.534 23.9619 11.3547 23.9619C11.3547 23.7165 11.3547 23.4711 11.3547 23.2257C11.3547 21.2626 11.3547 19.3812 11.3547 17.418C11.3547 16.3546 11.7194 16.0274 12.9049 16.0274C14.6374 16.0274 16.2788 16.0274 18.0114 16.0274C19.1057 16.0274 19.4704 16.3546 19.4704 17.3362C19.4704 19.2994 19.4704 21.2626 19.4704 23.2257C19.4704 23.3893 19.4704 23.6347 19.4704 23.7983C20.5647 23.7983 21.6589 23.8801 22.7532 23.7983C23.5739 23.7165 24.2122 22.9803 24.3034 22.2441C24.3034 22.0805 24.3946 21.917 24.3946 21.6716C24.4858 21.2626 25.0329 20.9354 25.4888 20.9354C26.036 20.9354 26.4919 21.3444 26.4919 21.8352C26.5831 23.8801 24.6681 25.6797 22.2061 25.7615C21.0206 25.7615 19.8352 25.7615 18.6497 25.7615C17.7378 25.7615 17.3731 25.4343 17.3731 24.6163C17.3731 22.5713 17.3731 20.6082 17.3731 18.5632C17.3731 18.3996 17.3731 18.1542 17.3731 17.9088C16.0964 17.9088 14.911 17.9088 13.5432 17.9088C13.5432 18.0724 13.5432 18.3178 13.5432 18.4814C13.5432 20.5264 13.5432 22.5713 13.5432 24.6163C13.5432 25.4343 13.1784 25.7615 12.2665 25.7615C10.8075 25.7615 9.34851 25.8433 7.8895 25.6797C5.51861 25.5161 4.0596 23.9619 4.0596 22.0806C4.0596 19.3812 4.0596 16.6818 4.0596 13.9824C4.0596 13.737 4.0596 13.5734 4.0596 13.2462ZM21.9325 4.57547C21.9325 5.06626 21.9325 5.55706 21.9325 5.96606C21.9325 6.45685 21.8413 6.86585 21.2942 7.11125C20.747 7.27485 20.2911 7.11125 19.9264 6.78405C18.7409 5.72066 17.4643 4.65726 16.1876 3.51207C15.3669 2.85768 15.0022 2.85768 14.1815 3.51207C11.2635 5.96606 8.34544 8.50184 5.51861 10.9558C5.42742 11.0376 5.33623 11.2012 5.15385 11.283C11.8106 11.283 18.4673 11.283 25.0329 11.283C24.121 10.7104 24.0298 9.81063 24.0298 8.91084C24.0298 7.68385 24.0298 6.37505 24.0298 5.14806C24.0298 4.98446 24.0298 4.73906 24.0298 4.57547C23.3003 4.57547 22.662 4.57547 21.9325 4.57547Z" fill="#B7C1CB"/>
</svg>
