<svg width="16" height="17" viewBox="0 0 16 17" fill="none" xmlns="http://www.w3.org/2000/svg">
<path d="M11.3121 7.59931C11.5502 7.83377 11.8478 8.06823 12.0859 8.30269C12.1454 8.36131 12.1454 8.36131 12.2049 8.41992C12.3239 8.53715 12.4429 8.53715 12.5025 8.41992C12.6215 8.36131 12.681 8.24408 12.6215 8.06823C12.5025 7.65792 12.3239 7.24762 12.1454 6.83731C12.0263 6.48562 11.8478 6.07531 11.7288 5.66501C11.4907 4.78578 11.8478 3.96517 12.6215 3.49624C12.9191 3.26178 13.2762 3.37901 13.4547 3.7307C14.1689 5.66501 14.8831 7.54069 15.5973 9.475C15.7163 9.82669 15.8949 10.1198 15.9544 10.4715C16.0734 11.1748 15.9544 11.8782 15.6568 12.5816C15.2997 13.5194 14.7046 14.2814 14.0499 14.9848C13.4547 15.6296 12.7405 16.1571 11.9668 16.5674C10.6575 17.1536 9.40763 17.1536 8.09828 16.5088C7.38409 16.1571 6.78893 15.6296 6.19377 15.1607C5.06297 14.2228 4.0512 13.1678 3.03943 12.1127C2.14669 11.2335 1.31347 10.2956 0.420727 9.35777C0.182663 9.1233 0.0636315 8.88884 0.00411561 8.53715C-0.0554003 8.00962 0.539759 7.30623 1.19443 7.59931C1.37298 7.65792 1.49201 7.77515 1.61105 7.89239C2.44427 8.713 3.27749 9.59223 4.11072 10.4715C4.17023 10.5887 4.22975 10.6473 4.28926 10.7059C4.34878 10.7645 4.46781 10.7645 4.52733 10.7059C4.58684 10.6473 4.58684 10.5301 4.52733 10.4715C4.52733 10.4128 4.46781 10.4128 4.46781 10.3542C3.21798 9.00607 1.90863 7.65792 0.599275 6.30977C0.182663 5.84085 0.182663 5.2547 0.599275 4.84439C0.837339 4.60993 1.13492 4.55132 1.4325 4.66855C1.67056 4.72716 1.90863 4.84439 2.08717 5.07885C2.97991 5.95808 3.87265 6.89593 4.70587 7.77515C5.06297 8.12685 5.42007 8.53715 5.83668 8.88884C5.95571 9.00607 6.07474 9.00607 6.13426 8.94746C6.19377 8.88884 6.19377 8.77161 6.07474 8.65438C5.83668 8.41992 5.65813 8.18546 5.42007 7.951C4.22975 6.66147 2.97991 5.37193 1.73008 4.0824C1.49201 3.78932 1.31347 3.49624 1.37298 3.08594C1.4325 2.5584 1.96814 2.26532 2.50378 2.38255C2.80136 2.44117 3.03943 2.61701 3.21798 2.79286C4.28926 3.84793 5.30103 4.96162 6.37232 6.0167C6.78893 6.427 7.20554 6.83731 7.62216 7.30623C7.8007 7.48208 7.86022 7.48208 7.97925 7.36485C8.09828 7.24762 8.03877 7.13039 7.91974 7.01316C6.78893 5.84085 5.65813 4.60993 4.46781 3.43763C4.34878 3.26178 4.22975 3.08594 4.17023 2.85148C4.0512 2.20671 4.64636 1.67917 5.30103 1.85502C5.59861 1.97225 5.83668 2.14809 6.07474 2.38255C7.32458 3.67209 8.63393 4.90301 9.88376 6.19254C10.2409 6.54423 10.598 6.95454 11.0146 7.30623C10.836 7.54069 10.6575 7.71654 10.5384 7.951C10.0028 8.77161 9.82425 9.65084 9.88376 10.5887C9.94328 11.1748 10.0623 11.761 10.3599 12.3471C10.4194 12.4644 10.4789 12.523 10.598 12.6402C10.717 12.7574 10.836 12.6402 10.836 12.523C10.836 12.4058 10.7765 12.3471 10.7765 12.2299C10.717 12.0541 10.598 11.8196 10.5384 11.6438C10.1218 10.1784 10.3599 8.88884 11.3121 7.71654C11.2526 7.65792 11.3121 7.59931 11.3121 7.59931Z" fill="#F8BF35"/>
<path d="M11.3121 7.59932C11.3121 7.65794 11.2526 7.65794 11.2526 7.71655C10.3003 8.88886 10.0622 10.1784 10.4788 11.6438C10.5384 11.8196 10.6574 12.0541 10.7169 12.2299C10.7764 12.3472 10.7764 12.4058 10.7764 12.523C10.7764 12.6402 10.6574 12.7575 10.5384 12.6402C10.4788 12.5816 10.3598 12.4644 10.3003 12.3472C10.0027 11.8196 9.88369 11.1748 9.82417 10.5887C9.76465 9.65085 9.9432 8.71301 10.4788 7.95101C10.5979 7.71655 10.7764 7.5407 10.955 7.30624C11.074 7.36486 11.193 7.48209 11.3121 7.59932Z" fill="#E28C25"/>
<path d="M7.97913 0.9758C8.03865 0.9758 8.09816 0.9758 8.15768 1.03441C8.93139 1.21026 9.52654 1.67918 10.0027 2.32395C10.3003 2.73426 10.5978 3.20318 10.7764 3.73072C10.7764 3.78933 10.8359 3.84795 10.8359 3.90656C10.8359 4.02379 10.7764 4.14102 10.6573 4.19964C10.5383 4.25825 10.4193 4.19964 10.3598 4.08241C10.3003 3.96518 10.3003 3.90656 10.2407 3.78933C10.0027 3.20318 9.64558 2.67564 9.16945 2.20672C8.81235 1.85503 8.39574 1.62057 7.97913 1.50334H7.91962C7.80058 1.44472 7.74107 1.32749 7.74107 1.21026C7.68155 1.03441 7.80058 0.9758 7.97913 0.9758Z" fill="#444445"/>
<path d="M3.93226 15.2193C3.27759 15.1607 2.68243 14.9848 2.14678 14.5745C1.55163 14.1642 1.13501 13.6953 0.718402 13.1091C0.718402 13.0505 0.658886 13.0505 0.658886 12.9919C0.59937 12.8747 0.59937 12.6988 0.777918 12.6402C0.89695 12.5816 1.0755 12.5816 1.13501 12.6988C1.31356 12.9333 1.55163 13.2264 1.73017 13.4608C2.26582 14.047 2.86098 14.4573 3.63468 14.6331C3.81323 14.6918 3.93226 14.6918 4.05129 14.6918C4.22984 14.6918 4.34887 14.809 4.34887 14.9848C4.34887 15.1607 4.22984 15.2193 4.05129 15.2193C3.99178 15.2193 3.99178 15.2193 3.93226 15.2193Z" fill="#444445"/>
<path d="M3.33699 16.5675C2.68232 16.5088 2.08716 16.333 1.492 15.9227C1.01587 15.6296 0.658776 15.2779 0.30168 14.8676C0.242164 14.809 0.242164 14.809 0.182648 14.7504C0.123132 14.6332 0.123132 14.5159 0.242164 14.3987C0.361196 14.3401 0.480228 14.3401 0.59926 14.3987C0.718291 14.5159 0.777807 14.5745 0.896839 14.6918C1.31345 15.1607 1.84909 15.571 2.44425 15.8055C2.74183 15.9227 3.09893 15.9813 3.39651 16.0399C3.63457 16.0399 3.7536 16.1572 3.7536 16.333C3.7536 16.5088 3.63457 16.5675 3.33699 16.5675Z" fill="#444445"/>
<path d="M9.64566 0.272419C9.64566 0.0965733 9.82421 -0.0792724 10.0623 0.037958C10.3003 0.155189 10.4789 0.331034 10.6574 0.50688C11.3121 1.15165 11.7287 1.91365 11.9073 2.85149C11.9073 2.96872 11.9668 3.08595 11.9668 3.20318C11.9668 3.37903 11.9073 3.49626 11.7287 3.55487C11.6097 3.55487 11.4311 3.49626 11.4311 3.32041C11.3716 2.85149 11.1931 2.38257 10.955 1.91365C10.6574 1.38611 10.3003 0.917186 9.76469 0.62411C9.64566 0.50688 9.58615 0.389649 9.64566 0.272419Z" fill="#444445"/>
</svg>
