<svg width="24" height="21" viewBox="0 0 24 21" fill="none" xmlns="http://www.w3.org/2000/svg">
<path d="M10.9732 2.89389L11.5876 3.37236L12.202 2.89389C12.9325 2.32502 13.7912 1.93178 14.7088 1.74763C15.6252 1.56372 16.5729 1.59385 17.4749 1.83539C18.5578 2.13577 19.5407 2.705 20.3288 3.48557C21.1146 4.26377 21.6801 5.22547 21.9729 6.27664C22.2154 7.26359 22.1787 8.29652 21.8663 9.26505C21.5525 10.2379 20.9718 11.1106 20.1845 11.7872L20.1621 11.8064L20.141 11.8269L11.739 19.9549C11.7387 19.9551 11.7385 19.9553 11.7383 19.9555C11.7105 19.9818 11.6692 19.9999 11.6223 19.9999C11.5749 19.9999 11.5334 19.9816 11.5056 19.9549L11.5053 19.9547L3.03127 11.824L3.01149 11.8051L2.9907 11.7872C2.20343 11.1106 1.62272 10.2379 1.3089 9.26505C0.996474 8.29652 0.959741 7.26358 1.20227 6.27663C1.49511 5.22546 2.06058 4.26377 2.84633 3.48557C3.63447 2.705 4.61736 2.13577 5.70026 1.83539C6.60223 1.59385 7.55001 1.56372 8.46637 1.74763C9.38395 1.93178 10.2427 2.32502 10.9732 2.89389Z" fill="white" stroke="#B7C1CB" stroke-width="2"/>
</svg>
