<svg width="46" height="15" viewBox="0 0 46 15" fill="none" xmlns="http://www.w3.org/2000/svg">
<g clip-path="url(#clip0_508_2830)">
<path d="M46.0002 14.4988C46.0002 14.5258 46.0002 14.5489 46.0002 14.5759C45.9887 14.5797 45.9772 14.5875 45.9657 14.5913C45.9772 14.599 45.9887 14.6067 46.0002 14.6144C46.0002 14.6646 46.0002 14.7186 46.0002 14.7687C44.854 14.7687 43.704 14.7687 42.554 14.7687C42.4199 14.1055 42.2857 13.4653 42.163 12.8252C42.1285 12.6479 42.071 12.5746 41.8717 12.5785C40.415 12.59 38.9584 12.5862 37.5017 12.5823C37.3675 12.5823 37.2985 12.6209 37.2525 12.752C37.0417 13.3689 36.8117 13.9821 36.597 14.599C36.551 14.7263 36.4935 14.7764 36.3517 14.7725C35.1749 14.7648 34.0019 14.7687 32.825 14.7687C32.7714 14.7687 32.7139 14.7648 32.6372 14.7571C32.6679 14.6761 32.6947 14.6106 32.7215 14.5489C34.5232 10.2224 36.321 5.89208 38.1227 1.5656C38.5137 0.628586 39.0465 0.269974 40.0547 0.266118C40.9747 0.262262 41.8947 0.266118 42.8147 0.266118C42.8722 0.266118 42.9259 0.27383 42.9872 0.277686C43.129 0.95635 43.267 1.6273 43.405 2.29825C43.911 4.73141 44.4132 7.16458 44.9192 9.59774C45.2527 11.198 45.5824 12.7944 45.9159 14.3947C45.9312 14.4332 45.9734 14.4641 46.0002 14.4988ZM38.3949 9.62859C39.4375 9.62859 40.4534 9.62859 41.496 9.62859C41.1242 7.8201 40.76 6.0309 40.392 4.23784C40.3805 4.23784 40.369 4.23784 40.3575 4.2417C39.7097 6.02704 39.058 7.81625 38.3949 9.62859Z" fill="white"/>
<path d="M31.0884 -6.90296e-06C31.1382 0.0231293 31.1881 0.0655458 31.2379 0.0732579C31.9432 0.158091 32.6294 0.320045 33.2964 0.566831C33.4114 0.609248 33.4344 0.667088 33.4191 0.778913C33.2657 1.70822 33.1162 2.63753 32.9667 3.56683C32.9591 3.61696 32.9437 3.66709 32.9284 3.72107C32.5872 3.58997 32.2576 3.44729 31.9164 3.33547C30.9466 3.02313 29.9537 2.93444 28.9532 3.13495C28.6581 3.1928 28.3591 3.33932 28.1099 3.51285C27.5656 3.89845 27.5349 4.51156 28.0064 4.982C28.4166 5.39074 28.9302 5.63753 29.4362 5.89974C30.0994 6.24678 30.7702 6.57069 31.3606 7.04112C32.1196 7.64652 32.7099 8.37146 32.8479 9.35861C33.0626 10.9087 32.6179 12.2545 31.4679 13.3303C30.6322 14.1131 29.6126 14.5334 28.5086 14.7609C28.1521 14.8342 27.7917 14.8689 27.4314 14.9229C27.3854 14.9306 27.3432 14.9691 27.2972 14.9923C27.2321 14.9923 27.1707 14.9923 27.1056 14.9923C27.0557 14.9923 27.0021 14.9923 26.9522 14.9923C26.6456 14.9923 26.3389 14.9923 26.0322 14.9923C26.0207 14.9846 26.0092 14.9769 25.9977 14.9653C25.9977 14.973 25.9977 14.9807 25.9939 14.9923C25.9671 14.9923 25.9441 14.9923 25.9172 14.9923C25.8789 14.9923 25.8406 14.9923 25.8022 14.9923C25.7256 14.9923 25.6489 14.9923 25.5722 14.9923C25.5224 14.9691 25.4764 14.9267 25.4266 14.9229C24.5717 14.8535 23.7361 14.6992 22.9157 14.4447C22.7049 14.3792 22.4979 14.2943 22.2717 14.2095C22.4442 13.1337 22.6129 12.0655 22.7892 10.9666C22.8659 10.9974 22.9349 11.0244 23.0001 11.0514C23.7399 11.3946 24.4912 11.7262 25.3077 11.8419C26.1626 11.9653 27.0212 12.0463 27.8684 11.7841C28.1827 11.6877 28.4702 11.5373 28.7002 11.2943C29.0989 10.874 29.1526 10.2763 28.7616 9.84832C28.5162 9.5784 28.2096 9.34704 27.8991 9.16195C27.3011 8.80334 26.6724 8.50642 26.0744 8.15552C25.4956 7.82004 24.9781 7.39974 24.5602 6.87146C23.7437 5.84575 23.6517 4.69665 24.0351 3.48971C24.4452 2.19408 25.3576 1.33804 26.5421 0.748065C27.3087 0.366317 28.1252 0.154235 28.9724 0.0539777C29.0184 0.0501216 29.0606 0.00770518 29.1027 -0.0192871C29.1679 -0.0192871 29.2292 -0.0192871 29.2944 -0.0192871C29.3021 -0.00771898 29.3174 0.0154173 29.3174 0.0154173C29.3366 0.00770518 29.3519 -0.00771898 29.3711 -0.0192871C29.8694 -0.0192871 30.3677 -0.0192871 30.8661 -0.0192871C30.8929 -0.0192871 30.9159 -0.0192871 30.9427 -0.0192871C30.9849 -6.90296e-06 31.0386 -6.90296e-06 31.0884 -6.90296e-06Z" fill="white"/>
<path d="M0 0.269969C0.0881667 0.269969 0.1725 0.266113 0.260667 0.266113C2.162 0.266113 4.06717 0.266113 5.9685 0.269969C6.17167 0.269969 6.37867 0.28925 6.57417 0.32781C7.30633 0.470484 7.6475 0.960201 7.78167 1.662C8.165 3.66714 8.55983 5.66843 8.95083 7.67357C8.96233 7.73527 8.9585 7.80082 8.96233 7.86252C8.92783 7.79697 8.88567 7.73527 8.855 7.66586C7.83533 5.28283 6.16017 3.48977 3.94833 2.17485C3.06283 1.6273 2.116 1.21856 1.13083 0.890792C0.759 0.767399 0.375667 0.682566 0 0.578453C0 0.528324 0 0.47434 0 0.424211C0.0115 0.416499 0.023 0.408787 0.0345 0.401075C0.023 0.397219 0.0115 0.389507 0 0.385651C0 0.34709 0 0.30853 0 0.269969Z" fill="#F8A61D"/>
<path d="M29.3633 0C29.3441 0.0115681 29.3288 0.0231362 29.3096 0.0347044C29.3058 0.0347044 29.2943 0.0115681 29.2866 0C29.3135 0 29.3365 0 29.3633 0Z" fill="#010203"/>
<path d="M0 0.385498C0.0115 0.389354 0.023 0.397066 0.0345 0.400922C0.023 0.408634 0.0115 0.416346 0 0.424058C0 0.41249 0 0.397066 0 0.385498Z" fill="#010203"/>
<path d="M45.9998 14.6145C45.9883 14.6068 45.9768 14.5991 45.9653 14.5914C45.9768 14.5875 45.9883 14.5798 45.9998 14.5759C45.9998 14.5875 45.9998 14.6029 45.9998 14.6145Z" fill="#010103"/>
<path d="M25.99 14.9999C25.99 14.9922 25.99 14.9845 25.9938 14.9729C26.0053 14.9806 26.0168 14.9883 26.0283 14.9999C26.0168 14.9999 26.0015 14.9999 25.99 14.9999Z" fill="#010203"/>
<path d="M3.94824 2.1748C6.15624 3.48585 7.83524 5.28277 8.85491 7.66966C8.88558 7.73907 8.92774 7.80076 8.96224 7.86632C9.10408 8.54498 9.24591 9.21979 9.39158 9.89845C9.40691 9.96786 9.42224 10.0334 9.44524 10.1491C9.54874 9.87146 9.64074 9.63238 9.72891 9.39717C10.8291 6.41645 11.9292 3.43958 13.0217 0.458863C13.0754 0.316189 13.1329 0.262205 13.2901 0.266061C14.4669 0.269917 15.6437 0.269917 16.8167 0.269917C16.8781 0.269917 16.9394 0.269917 17.0276 0.269917C16.8091 0.813619 16.5982 1.33804 16.3874 1.85861C14.6816 6.08097 12.9719 10.3072 11.2661 14.5334C11.2009 14.6954 11.1242 14.7494 10.9479 14.7494C9.77874 14.7416 8.60958 14.7416 7.44041 14.7494C7.28324 14.7494 7.22191 14.7031 7.18358 14.5488C6.11791 10.4807 5.04458 6.41259 3.97508 2.34447C3.95974 2.29048 3.95591 2.23264 3.94824 2.1748Z" fill="white"/>
<path d="M22.2603 0.270024C21.4821 5.11321 20.7078 9.93326 19.9334 14.761C18.6953 14.761 17.4648 14.761 16.2151 14.761C16.2841 14.3176 16.3531 13.8857 16.4221 13.45C16.6329 12.1273 16.8438 10.8047 17.0584 9.48211C17.2693 8.17876 17.4801 6.87542 17.6871 5.57208C17.8979 4.26103 18.1088 2.95383 18.3196 1.64277C18.3848 1.22632 18.4461 0.806014 18.5228 0.389562C18.5304 0.343289 18.6071 0.270024 18.6493 0.270024C19.8414 0.266168 21.0374 0.270024 22.2603 0.270024Z" fill="white"/>
</g>
<defs>
<clipPath id="clip0_508_2830">
<rect width="46" height="15" fill="white"/>
</clipPath>
</defs>
</svg>
