<svg width="25" height="24" viewBox="0 0 25 24" fill="none" xmlns="http://www.w3.org/2000/svg">
<path d="M19.1981 23.9999C18.5335 23.9999 17.8689 23.9999 17.2043 23.9999C16.5396 23.9999 16.0966 23.6307 16.0966 23.1137C16.0966 22.523 16.4658 22.1537 17.2043 22.1537C18.4596 22.1537 19.715 22.1537 20.9704 22.1537C21.8566 22.1537 22.1519 21.8584 22.1519 20.8984C22.1519 20.3076 22.5212 19.8645 22.9643 19.8645C23.4812 19.7907 23.9243 20.1599 23.9981 20.8245C24.2196 22.4491 22.8904 23.9999 21.1181 24.0737C20.5273 23.9999 19.8627 23.9999 19.1981 23.9999Z" fill="#B7C1CB"/>
<path d="M22.0781 16.0245C21.2658 14.843 20.3058 13.8092 19.1243 13.0707C18.1643 12.4061 17.0566 11.8892 16.0227 11.3722C19.6412 8.27069 18.6074 3.69223 16.4658 1.69839C14.1027 -0.516998 10.3366 -0.590845 7.89966 1.47685C6.71812 2.58454 5.90581 3.98762 5.75812 5.61223C5.53658 7.97531 6.34889 9.96915 8.19504 11.4461C8.19504 11.5199 8.1212 11.5199 8.1212 11.5199C7.97351 11.5938 7.82581 11.6676 7.67812 11.6676C3.69043 13.2922 1.10581 16.2461 0.145814 20.5292C-0.223417 22.1538 0.736583 23.7045 2.43505 23.9261C3.98581 24.0738 5.53658 23.9999 7.1612 23.9999C7.67812 23.9999 7.97351 23.5568 7.97351 23.1138C7.97351 22.5968 7.67812 22.3015 7.1612 22.2276C6.93966 22.2276 6.79197 22.2276 6.57043 22.2276C5.46274 22.2276 4.35504 22.2276 3.24735 22.2276C2.21351 22.2276 1.84428 21.7107 2.06581 20.7507C3.02581 17.2061 5.2412 14.7692 8.63812 13.4399C8.63812 13.4399 9.30274 13.1445 10.2627 12.9968C10.4843 12.923 10.7058 12.923 11.0012 12.8492V12.923C11.592 12.8492 12.3304 12.8492 13.0689 12.923C13.3643 12.9968 13.6597 12.9968 13.8812 13.0707C13.955 13.0707 14.0289 13.0707 14.1027 13.1445C14.1766 13.1445 14.2504 13.1445 14.3243 13.2184H14.3981C14.6935 13.2922 14.9889 13.3661 15.2843 13.5138C15.3581 13.5138 15.3581 13.5138 15.432 13.5876H15.5058C15.5797 13.5876 15.5797 13.6615 15.6535 13.6615C17.6474 14.3999 19.272 15.6553 20.5274 17.4276C20.9704 18.0184 21.4874 18.1661 22.0043 17.7968C22.4474 17.1322 22.4474 16.6892 22.0781 16.0245ZM12.1089 10.8553C9.67197 10.8553 7.60427 8.78762 7.60427 6.35069C7.60427 3.91377 9.59812 1.91992 12.1089 1.91992C14.5458 1.91992 16.6135 3.91377 16.6135 6.35069C16.6135 8.78762 14.5458 10.8553 12.1089 10.8553Z" fill="#B7C1CB"/>
</svg>
