<svg width="38" height="38" viewBox="0 0 38 38" fill="none" xmlns="http://www.w3.org/2000/svg">
<circle cx="19" cy="19" r="19" fill="white"/>
<path d="M18.9643 24C16.95 24 14.9429 24 12.9286 24C11.7214 24 11 23.2714 11 22.0643C11 19.6857 11 17.3 11 14.9214C11 13.7357 11.7286 13 12.9071 13C16.9643 13 21.0286 13 25.0857 13C26.2714 13 27 13.7357 27 14.9214C27 17.3143 27 19.7071 27 22.1C27 23.2643 26.2643 24 25.1071 24C23.0571 24 21.0143 24 18.9643 24ZM12.0143 16.7571C12.0071 16.9 12 17 12 17.1071C12 18.7643 12 20.4143 12 22.0714C12 22.7357 12.2714 23 12.9286 23C16.9714 23 21.0214 23 25.0643 23C25.7286 23 25.9929 22.7286 25.9929 22.0714C25.9929 20.4143 25.9929 18.7643 25.9929 17.1071C25.9929 16.9929 25.9857 16.8786 25.9786 16.7571C21.3143 16.7571 16.6857 16.7571 12.0143 16.7571ZM26 15.7286C26 15.4714 26 15.2357 26 15.0071C26 14.2429 25.7571 14 25 14C21 14 17.0071 14 13.0071 14C12.9 14 12.7929 13.9929 12.6857 14.0071C12.3429 14.05 12.0786 14.2357 12.0357 14.5714C11.9857 14.95 12.0214 15.3429 12.0214 15.7286C16.6929 15.7286 21.3286 15.7286 26 15.7286Z" fill="#FE7B3D"/>
<path d="M13.5 20.7571C13.5 20.15 13.65 20 14.25 20C14.85 20 15 20.15 15 20.7571C15 21.3429 14.8429 21.4929 14.2643 21.4929C13.65 21.5 13.5 21.35 13.5 20.7571Z" fill="#FE7B3D"/>
</svg>
