<svg width="38" height="38" viewBox="0 0 38 38" fill="none" xmlns="http://www.w3.org/2000/svg">
<circle cx="19" cy="19" r="19" fill="url(#paint0_linear_303_919)" fill-opacity="0.2"/>
<path d="M18.5 24.5H24.125" stroke="#FD7A3C" stroke-width="1.3" stroke-linecap="round" stroke-linejoin="round"/>
<path d="M21.3125 14.1874C21.5611 13.9388 21.8984 13.7991 22.25 13.7991C22.4241 13.7991 22.5965 13.8334 22.7574 13.9C22.9182 13.9666 23.0644 14.0643 23.1875 14.1874C23.3106 14.3105 23.4083 14.4567 23.4749 14.6175C23.5415 14.7784 23.5758 14.9508 23.5758 15.1249C23.5758 15.299 23.5415 15.4714 23.4749 15.6323C23.4083 15.7931 23.3106 15.9393 23.1875 16.0624L15.375 23.8749L12.875 24.4999L13.5 21.9999L21.3125 14.1874Z" stroke="#FD7A3C" stroke-width="1.3" stroke-linecap="round" stroke-linejoin="round"/>
<defs>
<linearGradient id="paint0_linear_303_919" x1="0" y1="0" x2="38" y2="38" gradientUnits="userSpaceOnUse">
<stop stop-color="#FD7B3D"/>
<stop offset="1" stop-color="#FEB556"/>
</linearGradient>
</defs>
</svg>
