<svg width="25" height="24" viewBox="0 0 25 24" fill="none" xmlns="http://www.w3.org/2000/svg">
<g clip-path="url(#clip0_1569_630)">
<path d="M7.21723 19.6364C5.81006 18.7792 5.65371 17.3766 5.49735 15.8961C5.10648 12.7013 4.79377 9.42857 4.40289 6.23377C4.32472 5.61039 4.32472 4.90909 4.16836 4.28571C3.93384 3.03896 2.7612 2.02597 1.43221 1.94805C1.27586 1.94805 1.1195 1.94805 1.04133 1.87013C0.337746 1.71429 0.0250422 1.32468 0.103218 0.857143C0.181394 0.311688 0.572273 0 1.19768 0C3.69931 0.0779221 5.81006 2.1039 6.04459 4.51948C6.04459 4.67532 6.12276 4.90909 6.12276 5.14286C6.35729 5.14286 6.59182 5.14286 6.82635 5.14286C12.1423 5.14286 17.4583 5.14286 22.7742 5.14286C23.9469 5.14286 24.1814 5.45455 24.025 6.62338C23.9469 6.93507 23.9469 7.16883 23.8687 7.48052C23.7123 8.02597 23.3215 8.33766 22.8524 8.25974C22.3833 8.18182 22.0706 7.87013 21.9925 7.32468C21.9925 7.24675 21.9925 7.16883 21.9925 7.09091C20.7417 7.09091 19.4908 7.09091 18.24 7.09091C18.1618 8.1039 18.0837 9.03896 18.0055 10.1299C18.6309 10.1299 19.1781 10.1299 19.7254 10.1299C20.5071 10.1299 21.2889 10.1299 22.0706 10.1299C22.9306 10.1299 23.3215 10.5195 23.1651 11.3766C23.0088 12.1558 22.8524 12.9351 22.6961 13.7143C22.227 15.5844 20.7417 16.5974 18.7091 16.5974C15.2693 16.5974 11.7514 16.5974 8.31169 16.5974C8.07716 16.5974 7.92081 16.5974 7.68628 16.5974C7.52993 17.5325 8.31169 18.4675 9.2498 18.4675C10.5006 18.4675 11.7514 18.4675 12.9241 18.4675C14.8003 18.4675 16.6765 18.4675 18.5527 18.4675C19.4127 18.4675 20.2726 18.7013 20.898 19.4026C21.7579 20.3377 21.8361 21.8961 21.1325 22.8312C20.3508 23.9221 18.9436 24.3117 17.771 23.8442C16.5983 23.3766 15.8947 22.052 16.1293 20.8052C16.1293 20.7273 16.2075 20.5714 16.2075 20.4935C14.8785 20.4935 13.5495 20.4935 12.2205 20.4935C12.5332 22.1299 11.986 23.2987 10.4224 23.9221C9.40615 24.3117 8.31169 24.0779 7.52993 23.2208C6.59182 22.0519 6.51364 20.961 7.21723 19.6364ZM16.1293 9.97403C16.2075 8.96104 16.2856 7.94805 16.3638 7.01299C14.8785 7.01299 13.4713 7.01299 11.986 7.01299C12.0641 7.94805 12.1423 8.80519 12.2205 9.66234C12.2205 9.81818 12.455 9.97403 12.5332 9.97403C13.7058 10.0519 14.8785 9.97403 16.1293 9.97403ZM6.43547 7.01299C6.51364 7.55844 6.51364 8.1039 6.59182 8.64935C6.74817 10.0519 6.74817 10.0519 8.15534 10.0519C8.85892 10.0519 9.5625 10.0519 10.3443 10.0519C10.2661 8.96104 10.1879 8.02597 10.1097 7.01299C8.85892 7.01299 7.68628 7.01299 6.43547 7.01299ZM6.9827 11.9221C7.06087 12.8571 7.21722 13.7922 7.2954 14.6494C8.46804 14.6494 9.64068 14.6494 10.7351 14.6494C10.657 13.7143 10.5788 12.8571 10.5006 11.9221C9.32797 11.9221 8.15534 11.9221 6.9827 11.9221ZM12.3768 11.9221C12.455 12.8571 12.5332 13.7143 12.6114 14.6494C13.7058 14.6494 14.7221 14.6494 15.7384 14.6494C15.8166 13.7143 15.8947 12.8571 15.8947 11.9221C14.7221 11.9221 13.5495 11.9221 12.3768 11.9221ZM17.6146 14.5714C19.8817 14.961 20.898 14.1039 20.9762 11.9221C19.9599 11.9221 18.8654 11.9221 17.8491 11.9221C17.771 12.8571 17.6928 13.7143 17.6146 14.5714ZM10.4224 21.2727C10.4224 20.8052 10.0316 20.4156 9.5625 20.4156C9.09345 20.4156 8.70257 20.8052 8.70257 21.2727C8.70257 21.8182 9.01527 22.1299 9.5625 22.1299C10.0316 22.1299 10.4224 21.7403 10.4224 21.2727ZM19.7254 21.1948C19.7254 20.7273 19.3345 20.3377 18.7873 20.3377C18.3182 20.3377 17.9273 20.8052 17.9273 21.2727C17.9273 21.7403 18.3964 22.1299 18.8654 22.1299C19.4127 22.0519 19.7254 21.6623 19.7254 21.1948Z" fill="#B7C1CB"/>
</g>
<defs>
<clipPath id="clip0_1569_630">
<rect width="24" height="24" fill="white" transform="translate(0.10321)"/>
</clipPath>
</defs>
</svg>
