<svg width="23" height="25" viewBox="0 0 23 25" fill="none" xmlns="http://www.w3.org/2000/svg">
<path d="M6.22491 2.85718C6.72491 2.92861 7.36777 3.07146 8.08205 3.07146C8.36777 3.07146 8.72491 2.92861 8.93919 2.78575C9.36777 2.42861 9.79634 2.00003 10.2249 1.57146C11.0821 0.785749 12.1535 0.785749 13.0106 1.57146C13.4392 1.92861 13.7963 2.35718 14.2249 2.71432C14.4392 2.92861 14.7963 3.00004 15.1535 3.00004C15.7963 3.00004 16.3678 2.85718 17.0106 2.78575C18.1535 2.78575 18.9392 3.42861 19.1535 4.57146C19.2249 5.07146 19.2963 5.50004 19.3678 6.00004C19.4392 6.50004 19.6535 6.85718 20.0821 7.00003C20.5106 7.21432 21.0106 7.50003 21.4392 7.71432C22.5106 8.28575 22.8678 9.35718 22.3678 10.4286C22.1535 10.9286 21.8678 11.3572 21.6535 11.8572C21.5106 12.2143 21.5821 12.6429 21.6535 13C21.7963 13.5 22.0821 13.8572 22.2963 14.3572C22.8678 15.5715 22.5106 16.5715 21.3678 17.2143C20.9392 17.4286 20.4392 17.7143 20.0106 17.9286C19.5821 18.1429 19.3678 18.4286 19.3678 18.8572C19.2963 19.3572 19.2249 19.7857 19.1535 20.2857C19.0106 21.3572 18.0821 22.2143 16.8678 22.0715C16.7249 22.0715 16.5106 22 16.3678 22C14.2249 21.7857 14.8678 21.5715 13.4392 22.9286C13.2249 23.1429 13.0106 23.3572 12.7963 23.5C12.0821 24.0715 11.0821 24.0715 10.3678 23.5C9.86777 23.0715 9.43919 22.5715 8.93919 22.2143C8.72491 22 8.36777 21.9286 8.08205 21.9286C7.43919 21.9286 6.79634 22.0715 6.08205 22.1429C5.01062 22.2143 4.29634 21.6429 4.08205 20.5715C3.93919 20.0715 3.86777 19.5 3.79634 18.9286C3.72491 18.5 3.51062 18.1429 3.08205 17.9286C2.58205 17.7143 2.15348 17.4286 1.65348 17.2143C0.582052 16.6429 0.296338 15.5715 0.724909 14.5C0.939195 14 1.15348 13.5715 1.4392 13.0715C1.65348 12.6429 1.65348 12.2857 1.4392 11.9286C1.22491 11.5 0.939195 11 0.724909 10.5715C0.224909 9.42861 0.510624 8.42861 1.65348 7.78575C2.08205 7.57146 2.58205 7.28575 3.01062 7.07146C3.43919 6.85718 3.65348 6.57146 3.72491 6.07146C3.79634 5.50003 3.86777 4.92861 4.01062 4.42861C4.29634 3.42861 5.08205 2.78575 6.22491 2.85718ZM6.22491 4.14289C5.65348 4.14289 5.51062 4.28575 5.36777 4.85718C5.22491 5.42861 5.15348 5.92861 5.01062 6.50003C4.86777 7.21432 4.51062 7.78575 3.79634 8.14289C3.29634 8.35718 2.86777 8.64289 2.36777 8.85718C1.86777 9.14289 1.79634 9.42861 2.01062 9.92861C2.22491 10.4286 2.43919 10.8572 2.72491 11.3572C3.08205 12.0715 3.08205 12.7857 2.72491 13.5C2.51062 13.9286 2.29634 14.4286 2.08205 14.8572C1.79634 15.4286 1.9392 15.7143 2.51062 16C3.01062 16.2857 3.43919 16.5 3.93919 16.7143C4.58205 17.0715 4.9392 17.5715 5.08205 18.2857C5.15348 18.8572 5.29634 19.4286 5.36777 20C5.43919 20.4286 5.72491 20.7143 6.15348 20.6429C6.79634 20.5715 7.43919 20.5 8.08205 20.4286C8.72491 20.3572 9.29634 20.5715 9.79634 21.0715C10.1535 21.4286 10.5821 21.7857 10.9392 22.1429C11.4392 22.6429 11.7249 22.6429 12.2249 22.1429C12.5821 21.7857 13.0106 21.4286 13.3678 21.0715C13.8678 20.5715 14.4392 20.3572 15.0821 20.4286C15.7249 20.5 16.3678 20.5715 16.9392 20.6429C17.5106 20.7143 17.7249 20.5715 17.7963 20C17.8678 19.5 18.0106 18.9286 18.0821 18.3572C18.2249 17.5715 18.5821 17 19.2963 16.7143C19.7249 16.5 20.2249 16.2143 20.6535 16C21.2249 15.7143 21.2963 15.4286 21.0106 14.7857C20.7963 14.2857 20.5106 13.7857 20.2963 13.2857C20.0106 12.6429 20.0106 12 20.2963 11.3572C20.5106 10.9286 20.7249 10.4286 20.9392 10C21.2963 9.28575 21.2249 9.00003 20.5106 8.64289C20.0821 8.42861 19.7249 8.21432 19.2963 8.00003C18.5821 7.64289 18.2249 7.07146 18.0821 6.35718C18.0106 5.78575 17.8678 5.28575 17.7963 4.71432C17.7249 4.21432 17.4392 4.00004 16.9392 4.07146C16.5106 4.14289 16.0106 4.14289 15.5821 4.28575C14.6535 4.42861 13.7963 4.28575 13.1535 3.50004C12.8678 3.14289 12.5106 2.85718 12.1535 2.57146C11.7249 2.14289 11.4392 2.14289 11.0106 2.57146C10.5821 3.00004 10.1535 3.42861 9.72491 3.85718C9.29634 4.28575 8.72491 4.50004 8.08205 4.42861C7.51062 4.35718 6.86777 4.28575 6.22491 4.14289Z" fill="#FE7A3E" stroke="#FE7A3E" stroke-width="0.5"/>
<path d="M16.7249 8.07146C16.582 8.35717 16.4392 8.57146 16.2963 8.71432C13.5106 11.5 10.6535 14.3572 7.86775 17.1429C7.43918 17.5715 7.08204 17.5715 6.79632 17.2857C6.51061 17 6.51061 16.5715 6.93918 16.2143C9.7249 13.4286 12.582 10.5715 15.3678 7.78574C15.582 7.57146 15.9392 7.50003 16.2249 7.50003C16.3678 7.57146 16.5106 7.85717 16.7249 8.07146Z" fill="#FE7A3E" stroke="#FE7A3E" stroke-width="0.5"/>
<path d="M14.2249 13.6429C15.5821 13.6429 16.5821 14.7143 16.6535 16.0714C16.6535 17.4286 15.5821 18.5 14.2249 18.5C12.9392 18.5 11.7964 17.4286 11.7964 16.0714C11.7964 14.7143 12.9392 13.5714 14.2249 13.6429ZM14.2249 17.1429C14.8678 17.1429 15.2964 16.6429 15.2964 16C15.2964 15.3571 14.7964 14.9286 14.2249 14.9286C13.5821 14.9286 13.0821 15.4286 13.0821 16C13.1535 16.6429 13.6535 17.1429 14.2249 17.1429Z" fill="#FE7A3E" stroke="#FE7A3E" stroke-width="0.5"/>
<path d="M8.93919 6.5C10.2249 6.5 11.3678 7.57143 11.3678 8.92857C11.3678 10.2857 10.2963 11.3571 8.93919 11.3571C7.58205 11.3571 6.58205 10.2857 6.51062 8.92857C6.51062 7.64286 7.58205 6.5 8.93919 6.5ZM8.93919 10C9.58205 10 10.082 9.5 10.0106 8.92857C10.0106 8.35714 9.43919 7.85714 8.86776 7.85714C8.29633 7.85714 7.79633 8.35714 7.79633 8.92857C7.86776 9.57143 8.29633 10.0714 8.93919 10Z" fill="#FE7A3E" stroke="#FE7A3E" stroke-width="0.5"/>
</svg>
