<svg width="28" height="18" viewBox="0 0 28 18" fill="none" xmlns="http://www.w3.org/2000/svg">
<circle cx="9" cy="9" r="9" fill="#EA001B"/>
<g style="mix-blend-mode:lighten">
<path fill-rule="evenodd" clip-rule="evenodd" d="M14 16.4845C16.412 14.87 18 12.1205 18 9.00008C18 5.87966 16.412 3.13015 14 1.51562C11.588 3.13015 10 5.87966 10 9.00008C10 12.1205 11.588 14.87 14 16.4845Z" fill="#F79F1A" fill-opacity="0.5"/>
</g>
<path fill-rule="evenodd" clip-rule="evenodd" d="M14 16.4844C16.412 14.8699 18 12.1204 18 9C18 5.87958 16.412 3.13007 14 1.51555C15.4301 0.558272 17.1499 0 19 0C23.9706 0 28 4.02944 28 9C28 13.9706 23.9706 18 19 18C17.1499 18 15.4301 17.4417 14 16.4844Z" fill="#F79F1A"/>
</svg>
