<svg width="196" height="179" viewBox="0 0 196 179" fill="none" xmlns="http://www.w3.org/2000/svg">
<g clip-path="url(#clip0_372_1984)">
<path d="M46.4793 170.564C22.8708 153.67 7.62359 125.758 9.09912 94.1738C11.0665 48.6332 47.9548 11.6621 93.6964 9.70334C144.848 7.25492 187.147 47.8987 187.147 98.3361C187.147 125.514 174.851 149.753 155.423 166.157C153.701 167.626 153.455 170.075 154.685 172.033C156.161 174.237 159.112 174.482 161.325 173.013C183.704 154.16 197.476 125.758 196 94.1738C193.787 43.7364 153.21 3.09261 102.795 0.644192C46.7252 -2.04907 0 42.757 0 98.3361C0 131.145 16.2309 160.281 41.3149 177.91C43.7742 179.624 46.9711 178.644 47.9548 175.706C48.6926 173.747 48.2008 171.789 46.4793 170.564Z" fill="#EEF1F5"/>
<path d="M93.6964 9.7036C144.848 7.25519 187.147 47.8989 187.147 98.3363C187.147 111.803 184.196 124.534 178.785 136.042C177.802 138.001 178.54 140.204 180.261 141.428C182.474 143.142 185.671 142.163 186.901 139.715C193.787 125.269 196.984 109.109 196 91.9705C192.803 43.7366 154.193 4.80677 105.992 0.889299C48.4467 -3.51785 0 41.7779 0 98.3363C0 131.145 16.2309 160.036 41.069 177.665C43.0364 179.134 45.9875 178.644 47.2171 176.686C48.6926 174.727 48.2008 171.789 46.2334 170.32C22.133 153.181 6.88582 124.534 8.8532 92.705C11.8043 47.8989 48.4467 11.9072 93.6964 9.7036Z" fill="url(#paint0_linear_372_1984)"/>
<path d="M98.145 26.5526C97.9101 26.5526 97.6753 26.3188 97.6753 26.085V20.4735C97.6753 20.2397 97.9101 20.0059 98.145 20.0059C98.3798 20.0059 98.6147 20.2397 98.6147 20.4735V26.085C98.6147 26.3188 98.3798 26.5526 98.145 26.5526Z" fill="#FE7A3E"/>
<path d="M109.887 27.4877C109.653 27.4877 109.418 27.2539 109.418 26.7862L110.357 21.4085C110.357 21.1747 110.592 20.9409 111.062 20.9409C111.296 20.9409 111.531 21.1747 111.531 21.6424L110.592 27.0201C110.357 27.4877 110.122 27.4877 109.887 27.4877Z" fill="#FE7A3E"/>
<path d="M121.395 30.5276C121.16 30.5276 120.925 30.0599 121.16 29.8261L123.039 24.6822C123.039 24.4484 123.508 24.2146 123.743 24.4484C123.978 24.4484 124.213 24.916 123.978 25.1499L122.099 30.2937C121.864 30.5276 121.629 30.5276 121.395 30.5276Z" fill="#FE7A3E"/>
<path d="M132.197 35.2037C131.963 34.9699 131.963 34.7361 131.963 34.5023L134.781 29.5922C135.016 29.3584 135.25 29.3584 135.485 29.3584C135.72 29.5922 135.72 29.826 135.72 30.0598L132.902 34.9699C132.667 35.4375 132.432 35.4375 132.197 35.2037Z" fill="#FE7A3E"/>
<path d="M141.826 41.9844C141.591 41.7506 141.591 41.5167 141.826 41.2829L145.349 37.0743C145.584 36.8405 145.819 36.8405 146.053 37.0743C146.288 37.3081 146.288 37.5419 146.053 37.7757L142.531 41.9844C142.531 41.9844 142.061 41.9844 141.826 41.9844Z" fill="#FE7A3E"/>
<path d="M150.515 50.1677C150.281 49.9339 150.281 49.7001 150.515 49.4662L154.743 45.9591C154.978 45.7252 155.212 45.7252 155.447 45.9591C155.682 46.1929 155.682 46.4267 155.447 46.6605L151.22 50.1677C150.985 50.4015 150.75 50.4015 150.515 50.1677Z" fill="#FE7A3E"/>
<path d="M157.561 59.5206C157.326 59.2867 157.561 59.0529 157.796 58.8191L162.493 56.0134C162.728 55.7795 162.962 56.0134 163.197 56.2472C163.432 56.481 163.197 56.7148 162.962 56.9486L158.265 59.7544C158.031 59.9882 157.561 59.7544 157.561 59.5206Z" fill="#FE7A3E"/>
<path d="M162.727 70.0421C162.727 69.8083 162.727 69.5745 162.962 69.3407L168.129 67.2363C168.364 67.2363 168.598 67.2363 168.833 67.4701C168.833 67.704 168.833 67.9378 168.598 68.1716L163.432 70.2759C163.197 70.5097 162.727 70.5097 162.727 70.0421Z" fill="#FE7A3E"/>
<path d="M166.015 81.4984C166.015 81.2646 166.25 81.0308 166.485 80.797L171.886 79.6279C172.121 79.6279 172.356 79.8617 172.591 80.0956C172.591 80.3294 172.356 80.5632 172.121 80.797L166.72 81.9661C166.485 81.9661 166.25 81.7323 166.015 81.4984Z" fill="#FE7A3E"/>
<path d="M167.424 93.1892C167.424 92.9554 167.659 92.7216 167.894 92.7216L173.53 92.4878C173.765 92.4878 174 92.7216 174 92.9554C174 93.1892 173.765 93.4231 173.53 93.4231L167.894 93.6569C167.659 93.6569 167.424 93.4231 167.424 93.1892Z" fill="#FE7A3E"/>
<path d="M166.72 104.88C166.72 104.646 166.955 104.413 167.424 104.413L172.826 105.348C173.061 105.348 173.295 105.582 173.295 106.049C173.295 106.283 173.061 106.517 172.591 106.517L167.189 105.582C166.955 105.582 166.72 105.114 166.72 104.88Z" fill="#FE7A3E"/>
<path d="M164.136 116.337C164.136 116.103 164.606 115.869 164.841 116.103L170.242 117.74C170.477 117.74 170.712 118.208 170.477 118.441C170.477 118.675 170.008 118.909 169.773 118.675L164.371 117.038C164.136 117.038 164.136 116.805 164.136 116.337Z" fill="#FE7A3E"/>
<path d="M159.439 127.326C159.674 127.092 159.909 126.859 160.144 127.092L165.076 129.664C165.311 129.898 165.545 130.132 165.311 130.366C165.076 130.6 164.841 130.833 164.606 130.6L159.674 128.028C159.439 127.794 159.439 127.56 159.439 127.326Z" fill="#FE7A3E"/>
<path d="M153.099 137.146C153.334 136.912 153.568 136.912 153.803 137.146L158.265 140.653C158.5 140.887 158.5 141.121 158.265 141.355C158.03 141.589 157.796 141.589 157.561 141.355L153.099 137.848C152.864 137.848 152.864 137.38 153.099 137.146Z" fill="#FE7A3E"/>
<path d="M145.114 145.797C145.349 145.564 145.584 145.564 145.819 145.797L149.576 150.006C149.811 150.24 149.811 150.474 149.576 150.707C149.341 150.941 149.106 150.941 148.872 150.707L145.114 146.499C144.879 146.499 144.879 146.031 145.114 145.797Z" fill="#FE7A3E"/>
<path d="M57.7518 150.474C57.9866 150.708 57.9866 150.941 57.7518 151.175L54.4639 155.618C54.2291 155.851 53.9942 155.851 53.7594 155.618C53.5245 155.384 53.5245 155.15 53.7594 154.916L57.0472 150.474C57.0472 150.24 57.5169 150.24 57.7518 150.474Z" fill="#FE7A3E"/>
<path d="M48.8276 142.758C49.0625 142.992 49.0625 143.226 48.8276 143.459L44.6004 147.2C44.3656 147.434 44.1307 147.434 43.8959 147.2C43.661 146.967 43.661 146.733 43.8959 146.499L47.8882 142.758C48.3579 142.524 48.5928 142.524 48.8276 142.758Z" fill="#FE7A3E"/>
<path d="M41.3127 133.405C41.5475 133.639 41.3127 133.873 41.0778 134.107L36.3809 137.146C36.1461 137.38 35.9112 137.146 35.6764 136.912C35.4415 136.679 35.6764 136.445 35.9112 136.211L40.6081 133.171C40.843 133.171 41.3127 133.171 41.3127 133.405Z" fill="#FE7A3E"/>
<path d="M35.6761 123.118C35.911 123.351 35.6761 123.585 35.4413 123.819L30.2747 126.157C30.0399 126.391 29.805 126.157 29.5702 125.923C29.3353 125.69 29.5702 125.456 29.805 125.222L34.9716 122.884C35.2065 122.884 35.4413 122.884 35.6761 123.118Z" fill="#FE7A3E"/>
<path d="M31.6838 112.128C31.6838 112.362 31.6838 112.596 31.2141 112.83L25.8127 114.233C25.5778 114.233 25.343 114.233 25.1082 113.765C25.1082 113.531 25.1082 113.297 25.5778 113.064L30.9793 111.661C31.449 111.661 31.6838 111.661 31.6838 112.128Z" fill="#FE7A3E"/>
<path d="M29.8052 100.437C29.8052 100.671 29.5703 100.905 29.3355 100.905L23.6992 101.373C23.4643 101.373 23.2295 101.139 23.2295 100.905C23.2295 100.671 23.4643 100.437 23.6992 100.437L29.3355 99.9697C29.5703 99.9697 29.8052 100.204 29.8052 100.437Z" fill="#FE7A3E"/>
<path d="M30.04 88.5129C30.04 88.7467 29.8052 88.9805 29.5703 88.9805L23.934 88.5129C23.6992 88.5129 23.4644 88.2791 23.4644 88.0453C23.4644 87.8115 23.6992 87.5776 23.934 87.5776L29.5703 88.0453C29.8052 88.0453 30.04 88.2791 30.04 88.5129Z" fill="#FE7A3E"/>
<path d="M32.1535 77.0565C32.1535 77.2903 31.6838 77.5241 31.449 77.5241L26.0476 76.1212C25.8127 76.1212 25.5779 75.6536 25.5779 75.4198C25.5779 75.186 26.0476 74.9521 26.2824 74.9521L31.6838 76.355C31.9187 76.355 32.1535 76.8227 32.1535 77.0565Z" fill="#FE7A3E"/>
<path d="M36.1459 66.067C35.911 66.3008 35.6762 66.5346 35.4414 66.3008L30.5096 63.9627C30.2748 63.7289 30.0399 63.2613 30.2748 63.0274C30.5096 62.7936 30.7445 62.5598 30.9793 62.7936L35.911 65.1318C36.1459 65.3656 36.3807 65.5994 36.1459 66.067Z" fill="#FE7A3E"/>
<path d="M42.252 55.7795C42.0172 56.0133 41.7823 56.0133 41.5475 56.0133L37.0854 52.7399C36.8506 52.5061 36.8506 52.2723 36.8506 52.0385C37.0854 51.8047 37.3203 51.8047 37.5551 51.8047L42.0172 55.0781C42.252 55.3119 42.252 55.5457 42.252 55.7795Z" fill="#FE7A3E"/>
<path d="M49.7671 46.6607C49.5322 46.8945 49.2974 46.8945 49.0625 46.6607L45.0702 42.6859C44.8353 42.4521 44.8353 42.2183 45.0702 41.9844C45.305 41.7506 45.5399 41.7506 45.7747 41.9844L49.7671 45.9593C50.0019 46.1931 50.0019 46.6607 49.7671 46.6607Z" fill="#FE7A3E"/>
<path d="M58.9261 39.1787C58.6912 39.4125 58.4564 39.1787 58.2215 38.9448L54.9337 34.5024C54.6989 34.2686 54.9337 34.0348 55.1685 33.801C55.4034 33.5671 55.6382 33.801 55.8731 34.0348L59.1609 38.4772C59.1609 38.711 59.1609 38.9448 58.9261 39.1787Z" fill="#FE7A3E"/>
<path d="M69.0243 33.0993C68.7894 33.3331 68.5546 33.0993 68.3197 32.8655L65.9713 27.7216C65.7365 27.4878 65.9713 27.254 66.2061 27.0202C66.441 26.7864 66.6758 27.0202 66.9107 27.254L69.2591 32.3979C69.494 32.8655 69.2591 33.0993 69.0243 33.0993Z" fill="#FE7A3E"/>
<path d="M80.0618 29.1249C79.827 29.1249 79.5922 29.1249 79.3573 28.6573L77.9482 23.2796C77.9482 23.0458 77.9482 22.8119 78.4179 22.5781C78.6528 22.5781 78.8876 22.5781 79.1225 23.0458L80.5315 28.4235C80.5315 28.6573 80.5315 29.1249 80.0618 29.1249Z" fill="#FE7A3E"/>
<path d="M88.7511 27.2537C88.5163 27.2537 88.2814 27.0199 88.0466 26.7861L87.342 21.1746C87.342 20.9408 87.5769 20.707 87.8117 20.4731C88.0466 20.4731 88.2814 20.707 88.5163 20.9408L89.2208 26.5523C89.2208 27.0199 88.9859 27.2537 88.7511 27.2537Z" fill="#FE7A3E"/>
</g>
<g clip-path="url(#clip1_372_1984)">
<path d="M150.728 123.951C151.279 124.241 151.742 123.36 151.192 123.07L99.0461 91.9633C96.6223 90.6875 93.5954 91.6267 92.3196 94.0505C91.0438 96.4742 91.983 99.5012 94.4068 100.777L150.728 123.951Z" fill="#FE7A3E"/>
<path d="M93.5316 94.6884C92.6028 96.4529 93.2802 98.6363 95.0448 99.5651C96.8093 100.494 98.9927 99.8164 99.9215 98.0519C100.85 96.2874 100.173 94.104 98.4083 93.1752C96.6438 92.2464 94.4604 92.9238 93.5316 94.6884Z" fill="white"/>
</g>
<defs>
<linearGradient id="paint0_linear_372_1984" x1="165" y1="14.6436" x2="36" y2="178.644" gradientUnits="userSpaceOnUse">
<stop stop-color="#E63143"/>
<stop offset="1" stop-color="#FDB355"/>
</linearGradient>
<clipPath id="clip0_372_1984">
<rect width="196" height="178" fill="white" transform="translate(0 0.643555)"/>
</clipPath>
<clipPath id="clip1_372_1984">
<rect width="9.96016" height="66.1105" fill="white" transform="translate(153.14 120.438) rotate(117.761)"/>
</clipPath>
</defs>
</svg>
