<svg width="24" height="22" viewBox="0 0 24 22" fill="none" xmlns="http://www.w3.org/2000/svg">
<g clip-path="url(#clip0_372_1997)">
<path d="M7.21338 2.3913C9.21338 2.3913 11.2134 2.3913 13.2134 2.3913C13.5705 2.3913 13.7134 2.32298 13.8562 1.98137C14.4991 0.68323 15.4991 0 16.9991 0C18.4991 0 19.5705 0.751553 20.142 1.98137C20.2848 2.32298 20.4991 2.3913 20.7848 2.3913C21.4277 2.3913 22.142 2.3913 22.8562 2.3913C23.4991 2.3913 23.9991 2.80124 23.9991 3.34783C23.9991 3.89441 23.5705 4.30435 22.9277 4.30435C22.2134 4.30435 21.4991 4.30435 20.8562 4.30435C20.4991 4.30435 20.3562 4.37267 20.2134 4.71429C19.5705 6.01242 18.4991 6.69565 16.9991 6.69565C15.5705 6.69565 14.4991 6.01242 13.8562 4.71429C13.7134 4.37267 13.4991 4.30435 13.2134 4.30435C9.28481 4.30435 5.35624 4.30435 1.49909 4.30435C1.35624 4.30435 1.14195 4.30435 0.999094 4.30435C0.356236 4.1677 -0.0723351 3.75776 -0.000906483 3.2795C0.0705221 2.73292 0.499094 2.3913 1.07052 2.3913C1.85624 2.3913 2.64195 2.3913 3.35624 2.3913C4.64195 2.3913 5.92767 2.3913 7.21338 2.3913ZM17.0705 4.71429C17.8562 4.71429 18.5705 4.09938 18.5705 3.2795C18.5705 2.52795 17.7848 1.84472 17.0705 1.84472C16.2848 1.84472 15.5705 2.52795 15.642 3.34783C15.5705 4.1677 16.142 4.71429 17.0705 4.71429Z" fill="#B7C1CB"/>
<path d="M7.28571 17.696C9.28571 17.696 11.2857 17.696 13.2143 17.696C13.5714 17.696 13.7143 17.6277 13.8571 17.2861C14.5 15.9879 15.5714 15.3047 17 15.3047C18.5 15.3047 19.5714 16.0562 20.1429 17.2861C20.2857 17.5593 20.4286 17.696 20.7143 17.6277C21.3571 17.6277 22.0714 17.6277 22.7857 17.6277C23.5 17.6277 24 18.0376 24 18.5842C24 19.1308 23.5 19.5407 22.7857 19.5407C22.0714 19.5407 21.3571 19.5407 20.7143 19.5407C20.5714 19.5407 20.3571 19.6774 20.2857 19.814C19.6429 21.1121 18.6429 21.8637 17.0714 21.8637C15.5714 21.8637 14.4286 21.1805 13.8571 19.814C13.7143 19.4724 13.5 19.4724 13.2143 19.4724C9.35714 19.4724 5.42857 19.4724 1.57143 19.4724C1.42857 19.4724 1.28571 19.4724 1.21429 19.4724C0.5 19.4724 0.0714286 19.1308 0 18.5159C0 17.9693 0.428571 17.491 1.14286 17.491C3.21429 17.696 5.21429 17.696 7.28571 17.696ZM15.5714 18.6525C15.5714 19.4724 16.2857 20.0873 17.0714 20.0873C17.8571 20.0873 18.5714 19.3357 18.5714 18.6525C18.5714 17.901 17.8571 17.2177 17.0714 17.2177C16.1429 17.2177 15.5714 17.8326 15.5714 18.6525Z" fill="#B7C1CB"/>
<path d="M10.3571 11.9567C9.85714 13.3231 8.92857 14.143 7.42857 14.348C5.92857 14.4846 4.35714 13.6647 3.85714 12.2983C3.71429 11.9567 3.57143 11.8883 3.21429 11.8883C2.5 11.8883 1.78571 11.8883 1.14286 11.8883C0.5 11.8883 0 11.4784 0 10.9318C0 10.3852 0.428571 10.0436 1.14286 9.97529C1.85714 9.97529 2.57143 9.97529 3.28571 9.97529C3.57143 9.97529 3.71429 9.90697 3.85714 9.63367C4.42857 8.33554 5.57143 7.58398 7 7.58398C8.42857 7.58398 9.57143 8.26721 10.1429 9.56535C10.2857 9.90697 10.5 10.0436 10.8571 10.0436C14.7143 10.0436 18.6429 10.0436 22.5 10.0436C22.7143 10.0436 22.9286 10.0436 23.0714 10.0436C23.5714 10.1119 24 10.5219 24 11.0001C24 11.4784 23.5714 11.8883 23.0714 11.8883C22.8571 11.8883 22.7143 11.8883 22.5 11.8883C18.6429 11.8883 14.7857 11.8883 11 11.8883C10.7857 11.9567 10.5714 11.9567 10.3571 11.9567ZM8.5 11.0001C8.5 10.1803 7.85714 9.56535 7 9.56535C6.21429 9.56535 5.5 10.2486 5.5 11.0001C5.5 11.7517 6.21429 12.4349 7 12.4349C7.85714 12.4349 8.5 11.82 8.5 11.0001Z" fill="#B7C1CB"/>
</g>
<defs>
<clipPath id="clip0_372_1997">
<rect width="24" height="22" fill="white"/>
</clipPath>
</defs>
</svg>
