<svg width="48" height="48" viewBox="0 0 48 48" fill="none" xmlns="http://www.w3.org/2000/svg">
<circle cx="24" cy="24" r="24" fill="#FF4643"/>
<g clip-path="url(#clip0_553_25)">
<path d="M23.9701 33C21.0448 33 18.1791 33 15.2537 33C14.2985 33 14 32.6887 14 31.6926C14 29.0156 14 26.3385 14 23.6615C14 22.9144 14.2388 22.7899 14.8955 23.0389C17.5821 24.0973 20.2687 25.0934 22.9552 26.1518C23.3731 26.3385 23.7313 26.3385 24.1493 26.1518C27.0149 24.9689 29.8806 23.786 32.806 22.6031C32.8657 22.5409 32.9851 22.5409 33.0448 22.4786C33.7015 22.2296 33.9403 22.4163 33.9403 23.1634C33.9403 24.3463 33.9403 25.5292 33.9403 26.7121C33.9403 28.393 33.9403 30.0117 33.9403 31.6926C33.9403 32.751 33.6418 33.0623 32.6269 33.0623C29.7612 33 26.8955 33 23.9701 33Z" fill="white"/>
<path d="M24.0299 17C26.8955 17 29.7612 17 32.6269 17C33.7015 17 34 17.3113 34 18.4319C34 18.6809 34 18.93 34 19.179C34 20.3619 34 20.2996 32.9254 20.7354C30.1194 21.856 27.3134 22.9767 24.5075 24.1595C23.9104 24.4086 23.4328 24.4086 22.8358 24.1595C20.0896 23.1012 17.3433 22.0428 14.597 21.0467C14.1791 20.8599 14 20.6109 14 20.1751C14 19.5525 14 18.9922 14 18.3696C14 17.3735 14.2985 17 15.3134 17C18.1791 17 21.1045 17 24.0299 17Z" fill="white"/>
</g>
<defs>
<clipPath id="clip0_553_25">
<rect width="20" height="16" fill="white" transform="translate(14 17)"/>
</clipPath>
</defs>
</svg>
