<svg width="17" height="8" viewBox="0 0 17 8" fill="none" xmlns="http://www.w3.org/2000/svg">
<g clip-path="url(#clip0_387_339)">
<path d="M8.51712 3.32469C7.21732 3.29006 6.19116 4.32902 6.19116 5.64504C6.19116 6.96106 7.18311 8.00002 8.48291 8.00002C9.78271 8.00002 10.8089 6.96106 10.8089 5.67967C10.8089 4.36365 9.81692 3.35933 8.51712 3.32469Z" fill="#7A8598"/>
<path d="M17 5.29889C17 5.26426 17 5.19499 16.9658 5.16036V5.12573C16.9658 5.0911 16.9658 5.0911 16.9658 5.0911C16.9658 5.05646 16.9316 5.02183 16.9316 4.9872C16.8974 4.95257 16.8632 4.91794 16.829 4.8833C15.4608 3.22097 13.8873 1.80105 11.9034 0.831355C9.91952 -0.138342 7.8672 -0.27687 5.78068 0.519667C3.48893 1.4201 1.71026 2.97854 0.205231 4.8833C0.171026 4.91794 0.136821 4.95257 0.102616 5.02183C0.0342052 5.0911 0 5.19499 0 5.29889C0 5.43742 0.0684105 5.57594 0.136821 5.67984C0.239437 5.78374 0.410463 5.88763 0.581489 5.88763C0.752515 5.88763 0.889336 5.81837 1.02616 5.67984C1.02616 5.64521 1.02616 5.64521 1.02616 5.61058C2.80483 3.63655 4.65191 1.90495 7.28571 1.3162C8.38028 1.07378 9.54326 1.17768 10.6036 1.55863C12.5875 2.2859 14.0926 3.63655 15.5292 5.16036L15.9738 5.64521C15.9738 5.64521 15.9738 5.64521 16.008 5.67984L16.0423 5.71447C16.1449 5.81837 16.2817 5.853 16.4185 5.853C16.5211 5.853 16.5895 5.81837 16.6579 5.78374C16.9658 5.71447 17 5.47205 17 5.29889Z" fill="#7A8598"/>
</g>
<defs>
<clipPath id="clip0_387_339">
<rect width="17" height="8" fill="white"/>
</clipPath>
</defs>
</svg>
