<svg width="25" height="25" viewBox="0 0 25 25" fill="none" xmlns="http://www.w3.org/2000/svg">
<path d="M12.5 23.9852C9.66923 23.9852 6.75 23.9852 3.91923 23.9852C2.15 23.9852 1 22.9237 1 21.066C1 16.6429 1 12.1314 1 7.70829C1 5.93906 2.06154 4.78906 3.91923 4.78906C4.80385 4.78906 5.77692 4.78906 6.66154 4.78906C6.83846 4.78906 7.01538 4.78906 7.19231 4.87752C7.63462 4.96599 7.81154 5.23137 7.72308 5.67368C7.63461 6.02752 7.36923 6.20445 6.92692 6.20445C5.95385 6.20445 4.98077 6.20445 3.91923 6.20445C2.85769 6.20445 2.41538 6.64675 2.41538 7.70829C2.41538 12.1314 2.41538 16.5544 2.41538 20.9775C2.41538 22.0391 2.85769 22.4814 3.91923 22.4814C9.66923 22.4814 15.3308 22.4814 21.0808 22.4814C22.1423 22.4814 22.5846 22.0391 22.5846 20.9775C22.5846 18.5006 22.5846 16.0237 22.5846 13.4583C22.5846 13.2814 22.4962 13.1044 22.5846 13.016C22.7615 12.7506 23.0269 12.4852 23.2923 12.3968C23.6462 12.3083 23.9115 12.5737 24 12.9275C24 13.016 24 13.1044 24 13.1929C24 15.8468 24 18.5006 24 21.2429C24 22.7468 22.85 23.8968 21.2577 23.8968C18.3385 23.9852 15.4192 23.9852 12.5 23.9852Z" fill="#B7C1CB" stroke="#B7C1CB" stroke-width="0.5"/>
<path d="M16.3038 4.78915C16.3038 3.90453 16.3038 3.01992 16.3038 2.1353C16.3038 1.95838 16.3038 1.693 16.3922 1.51607C16.5692 0.985303 17.1884 0.80838 17.5423 1.25069C19.5769 3.37376 21.6115 5.49684 23.7346 7.61992C24.0884 8.06223 24.0884 8.32761 23.7346 8.76992C21.6999 10.893 19.6653 13.0161 17.5423 15.1391C17.3653 15.3161 17.0115 15.4045 16.8346 15.3161C16.5692 15.2276 16.3922 14.9622 16.3038 14.6968C16.2153 14.2545 16.3038 13.8122 16.2153 13.4584C16.2153 12.8391 16.2153 12.2199 16.2153 11.6007C14.9769 11.5122 13.8269 11.6007 12.6769 11.9545C10.7307 12.5738 9.22687 13.8122 8.16533 15.5815C8.07687 15.7584 8.07687 15.9353 7.89994 15.9353C7.63456 16.1122 7.36917 16.2891 7.10379 16.2007C6.92687 16.1122 6.66148 15.8468 6.57302 15.5815C6.04225 9.47761 10.1115 5.23146 15.1538 4.78915C15.5961 4.87761 15.9499 4.78915 16.3038 4.78915ZM17.7192 12.7507C17.7192 12.7507 17.8076 12.7507 17.8076 12.8391C19.3115 11.3353 20.7269 9.83146 22.2307 8.23915C20.7269 6.64684 19.3115 5.14299 17.8076 3.63915C17.8076 4.16992 17.8076 4.70069 17.8076 5.31992C17.8076 6.02761 17.6307 6.20453 16.8346 6.29299C16.3922 6.29299 15.8615 6.29299 15.4192 6.38146C12.323 6.7353 10.1999 8.32761 8.87302 11.1584C8.60764 11.7776 8.43071 12.3968 8.25379 13.0161C8.34225 13.0161 8.34225 13.0161 8.43071 13.1045C9.31533 12.1315 10.3769 11.4238 11.6153 10.893C13.3846 10.0968 15.2422 10.0968 17.1884 10.1853C17.6307 10.1853 17.8076 10.5391 17.8076 10.9815C17.7192 11.5122 17.7192 12.1315 17.7192 12.7507Z" fill="#B7C1CB" stroke="#B7C1CB" stroke-width="0.5"/>
</svg>
