<svg width="283" height="192" viewBox="0 0 283 192" fill="none" xmlns="http://www.w3.org/2000/svg">
<path d="M36 38.5616C49.3964 18.9239 79.0779 -14.4601 90.6323 9.10511C105.075 38.5616 105.703 115.023 131.449 113.143C157.196 111.262 155.756 44.202 181.058 44.202C206.5 44.202 204 108 225.5 108C245.455 108 238.83 22.8931 277.763 33.5476" stroke="#EEF1F5"/>
<path d="M3.64062 14H2.67188L0.671875 15.3281L0.671875 16.3125L2.625 15.0156H2.67188L2.67188 22H3.64062L3.64062 14ZM8.11586 22.1094C9.63929 22.1094 10.7565 20.9844 10.7565 19.4531C10.7565 17.9023 9.67836 16.7656 8.20961 16.7656C7.67054 16.7656 7.14711 16.957 6.81898 17.2187H6.77211L7.05336 14.8594H10.3971V14H6.24086L5.75648 17.9375L6.66273 18.0469C6.99476 17.8086 7.56117 17.6367 8.05336 17.6406C9.07289 17.6484 9.81898 18.4219 9.81898 19.4687C9.81898 20.4961 9.10023 21.25 8.11586 21.25C7.29554 21.25 6.6432 20.7227 6.56898 20H5.63148C5.69008 21.2188 6.74086 22.1094 8.11586 22.1094ZM11.9983 22H12.9202V19.7539L13.5647 19.1562L15.8108 22H16.9827L14.26 18.5625L16.7952 16H15.6546L13.0296 18.6719H12.9202V14H11.9983V22Z" fill="#B7C1CB"/>
<line x1="35" y1="17.5" x2="281" y2="17.5" stroke="#EEF1F5"/>
<path d="M3.64062 62H2.67188L0.671875 63.3281L0.671875 64.3125L2.625 63.0156H2.67188L2.67188 70H3.64062L3.64062 62ZM5.63148 70H6.55336V67.7539L7.19789 67.1562L9.44398 70H10.6159L7.8932 66.5625L10.4284 64H9.28773L6.66273 66.6719H6.55336L6.55336 62H5.63148L5.63148 70Z" fill="#B7C1CB"/>
<line x1="35" y1="65.5" x2="281" y2="65.5" stroke="#EEF1F5"/>
<path d="M3.32812 118.109C4.85156 118.109 5.96875 116.984 5.96875 115.453C5.96875 113.902 4.89063 112.766 3.42188 112.766C2.88281 112.766 2.35938 112.957 2.03125 113.219H1.98438L2.26563 110.859H5.60938V110H1.45313L0.96875 113.937L1.875 114.047C2.20703 113.809 2.77344 113.637 3.26562 113.641C4.28516 113.648 5.03125 114.422 5.03125 115.469C5.03125 116.496 4.3125 117.25 3.32812 117.25C2.50781 117.25 1.85547 116.723 1.78125 116H0.84375C0.902344 117.219 1.95313 118.109 3.32812 118.109ZM9.80433 118.109C11.57 118.109 12.5856 116.613 12.5856 114C12.5856 111.406 11.5543 109.891 9.80433 109.891C8.05433 109.891 7.02308 111.406 7.02308 114C7.02308 116.613 8.03871 118.109 9.80433 118.109ZM9.80433 117.25C8.64027 117.25 7.96058 116.082 7.96058 114C7.96058 111.922 8.64808 110.734 9.80433 110.734C10.9606 110.734 11.6481 111.922 11.6481 114C11.6481 116.082 10.9684 117.25 9.80433 117.25ZM16.3538 118.109C18.1194 118.109 19.135 116.613 19.135 114C19.135 111.406 18.1038 109.891 16.3538 109.891C14.6038 109.891 13.5725 111.406 13.5725 114C13.5725 116.613 14.5882 118.109 16.3538 118.109ZM16.3538 117.25C15.1897 117.25 14.51 116.082 14.51 114C14.51 111.922 15.1975 110.734 16.3538 110.734C17.51 110.734 18.1975 111.922 18.1975 114C18.1975 116.082 17.5178 117.25 16.3538 117.25Z" fill="#B7C1CB"/>
<line x1="35" y1="113.5" x2="281" y2="113.5" stroke="#EEF1F5"/>
<path d="M3.4375 166.109C5.20313 166.109 6.21875 164.613 6.21875 162C6.21875 159.406 5.1875 157.891 3.4375 157.891C1.6875 157.891 0.65625 159.406 0.65625 162C0.65625 164.613 1.67188 166.109 3.4375 166.109ZM3.4375 165.25C2.27344 165.25 1.59375 164.082 1.59375 162C1.59375 159.922 2.28125 158.734 3.4375 158.734C4.59375 158.734 5.28125 159.922 5.28125 162C5.28125 164.082 4.60156 165.25 3.4375 165.25Z" fill="#B7C1CB"/>
<line x1="35" y1="161.5" x2="281" y2="161.5" stroke="#EEF1F5"/>
<path d="M38.4375 187.109C40.2031 187.109 41.2188 185.613 41.2188 183C41.2188 180.406 40.1875 178.891 38.4375 178.891C36.6875 178.891 35.6563 180.406 35.6563 183C35.6563 185.613 36.6719 187.109 38.4375 187.109ZM38.4375 186.25C37.2734 186.25 36.5938 185.082 36.5938 183C36.5938 180.922 37.2813 179.734 38.4375 179.734C39.5938 179.734 40.2813 180.922 40.2813 183C40.2813 185.082 39.6016 186.25 38.4375 186.25ZM45.1901 179H44.2213L42.2213 180.328V181.312L44.1745 180.016H44.2213V187H45.1901V179ZM47.3802 187.063C47.7669 187.063 48.0833 186.746 48.0833 186.359C48.0833 185.973 47.7669 185.656 47.3802 185.656C46.9934 185.656 46.677 185.973 46.677 186.359C46.677 186.746 46.9934 187.063 47.3802 187.063ZM51.7265 187.109C53.4921 187.109 54.5077 185.613 54.5077 183C54.5077 180.406 53.4765 178.891 51.7265 178.891C49.9765 178.891 48.9452 180.406 48.9452 183C48.9452 185.613 49.9609 187.109 51.7265 187.109ZM51.7265 186.25C50.5624 186.25 49.8827 185.082 49.8827 183C49.8827 180.922 50.5702 179.734 51.7265 179.734C52.8827 179.734 53.5702 180.922 53.5702 183C53.5702 185.082 52.8905 186.25 51.7265 186.25ZM55.6666 187H60.7134V186.141H56.9947V186.078L58.7916 184.156C60.1666 182.684 60.5728 181.996 60.5728 181.109C60.5728 179.875 59.5728 178.891 58.1666 178.891C56.7642 178.891 55.6978 179.844 55.6978 181.25H56.6197C56.6197 180.34 57.2095 179.734 58.1353 179.734C59.0025 179.734 59.6666 180.266 59.6666 181.109C59.6666 181.848 59.233 182.395 58.3072 183.406L55.6666 186.297V187Z" fill="#B7C1CB"/>
<path d="M81.4375 187.109C83.2031 187.109 84.2188 185.613 84.2188 183C84.2188 180.406 83.1875 178.891 81.4375 178.891C79.6875 178.891 78.6563 180.406 78.6563 183C78.6563 185.613 79.6719 187.109 81.4375 187.109ZM81.4375 186.25C80.2734 186.25 79.5938 185.082 79.5938 183C79.5938 180.922 80.2813 179.734 81.4375 179.734C82.5938 179.734 83.2813 180.922 83.2813 183C83.2813 185.082 82.6016 186.25 81.4375 186.25ZM87.8776 187.109C89.401 187.109 90.5182 185.984 90.5182 184.453C90.5182 182.902 89.4401 181.766 87.9713 181.766C87.4323 181.766 86.9088 181.957 86.5807 182.219H86.5338L86.8151 179.859H90.1588V179H86.0026L85.5182 182.937L86.4245 183.047C86.7565 182.809 87.3229 182.637 87.8151 182.641C88.8346 182.648 89.5807 183.422 89.5807 184.469C89.5807 185.496 88.862 186.25 87.8776 186.25C87.0573 186.25 86.4049 185.723 86.3307 185H85.3932C85.4518 186.219 86.5026 187.109 87.8776 187.109ZM92.1311 187.063C92.5178 187.063 92.8343 186.746 92.8343 186.359C92.8343 185.973 92.5178 185.656 92.1311 185.656C91.7444 185.656 91.428 185.973 91.428 186.359C91.428 186.746 91.7444 187.063 92.1311 187.063ZM96.4775 187.109C98.2431 187.109 99.2587 185.613 99.2587 183C99.2587 180.406 98.2275 178.891 96.4775 178.891C94.7275 178.891 93.6962 180.406 93.6962 183C93.6962 185.613 94.7118 187.109 96.4775 187.109ZM96.4775 186.25C95.3134 186.25 94.6337 185.082 94.6337 183C94.6337 180.922 95.3212 179.734 96.4775 179.734C97.6337 179.734 98.3212 180.922 98.3212 183C98.3212 185.082 97.6415 186.25 96.4775 186.25ZM100.418 187H105.464V186.141H101.746V186.078L103.543 184.156C104.918 182.684 105.324 181.996 105.324 181.109C105.324 179.875 104.324 178.891 102.918 178.891C101.515 178.891 100.449 179.844 100.449 181.25H101.371C101.371 180.34 101.96 179.734 102.886 179.734C103.753 179.734 104.418 180.266 104.418 181.109C104.418 181.848 103.984 182.395 103.058 183.406L100.418 186.297V187Z" fill="#B7C1CB"/>
<path d="M126.641 179H125.672L123.672 180.328V181.312L125.625 180.016H125.672V187H126.641V179ZM131.225 187.109C132.991 187.109 134.006 185.613 134.006 183C134.006 180.406 132.975 178.891 131.225 178.891C129.475 178.891 128.444 180.406 128.444 183C128.444 185.613 129.46 187.109 131.225 187.109ZM131.225 186.25C130.061 186.25 129.381 185.082 129.381 183C129.381 180.922 130.069 179.734 131.225 179.734C132.381 179.734 133.069 180.922 133.069 183C133.069 185.082 132.389 186.25 131.225 186.25ZM135.574 187.063C135.96 187.063 136.277 186.746 136.277 186.359C136.277 185.973 135.96 185.656 135.574 185.656C135.187 185.656 134.87 185.973 134.87 186.359C134.87 186.746 135.187 187.063 135.574 187.063ZM139.92 187.109C141.685 187.109 142.701 185.613 142.701 183C142.701 180.406 141.67 178.891 139.92 178.891C138.17 178.891 137.139 180.406 137.139 183C137.139 185.613 138.154 187.109 139.92 187.109ZM139.92 186.25C138.756 186.25 138.076 185.082 138.076 183C138.076 180.922 138.764 179.734 139.92 179.734C141.076 179.734 141.764 180.922 141.764 183C141.764 185.082 141.084 186.25 139.92 186.25ZM143.86 187H148.907V186.141H145.188V186.078L146.985 184.156C148.36 182.684 148.766 181.996 148.766 181.109C148.766 179.875 147.766 178.891 146.36 178.891C144.958 178.891 143.891 179.844 143.891 181.25H144.813C144.813 180.34 145.403 179.734 146.329 179.734C147.196 179.734 147.86 180.266 147.86 181.109C147.86 181.848 147.426 182.395 146.501 183.406L143.86 186.297V187Z" fill="#B7C1CB"/>
<path d="M169.641 179H168.672L166.672 180.328V181.312L168.625 180.016H168.672V187H169.641V179ZM174.116 187.109C175.639 187.109 176.756 185.984 176.756 184.453C176.756 182.902 175.678 181.766 174.21 181.766C173.671 181.766 173.147 181.957 172.819 182.219H172.772L173.053 179.859H176.397V179H172.241L171.756 182.937L172.663 183.047C172.995 182.809 173.561 182.637 174.053 182.641C175.073 182.648 175.819 183.422 175.819 184.469C175.819 185.496 175.1 186.25 174.116 186.25C173.296 186.25 172.643 185.723 172.569 185H171.631C171.69 186.219 172.741 187.109 174.116 187.109ZM178.369 187.063C178.756 187.063 179.073 186.746 179.073 186.359C179.073 185.973 178.756 185.656 178.369 185.656C177.983 185.656 177.666 185.973 177.666 186.359C177.666 186.746 177.983 187.063 178.369 187.063ZM182.716 187.109C184.481 187.109 185.497 185.613 185.497 183C185.497 180.406 184.466 178.891 182.716 178.891C180.966 178.891 179.934 180.406 179.934 183C179.934 185.613 180.95 187.109 182.716 187.109ZM182.716 186.25C181.552 186.25 180.872 185.082 180.872 183C180.872 180.922 181.559 179.734 182.716 179.734C183.872 179.734 184.559 180.922 184.559 183C184.559 185.082 183.88 186.25 182.716 186.25ZM186.656 187H191.703V186.141H187.984V186.078L189.781 184.156C191.156 182.684 191.562 181.996 191.562 181.109C191.562 179.875 190.562 178.891 189.156 178.891C187.753 178.891 186.687 179.844 186.687 181.25H187.609C187.609 180.34 188.199 179.734 189.125 179.734C189.992 179.734 190.656 180.266 190.656 181.109C190.656 181.848 190.222 182.395 189.296 183.406L186.656 186.297V187Z" fill="#B7C1CB"/>
<path d="M209.828 187H214.875V186.141H211.156V186.078L212.953 184.156C214.328 182.684 214.734 181.996 214.734 181.109C214.734 179.875 213.734 178.891 212.328 178.891C210.926 178.891 209.859 179.844 209.859 181.25H210.781C210.781 180.34 211.371 179.734 212.297 179.734C213.164 179.734 213.828 180.266 213.828 181.109C213.828 181.848 213.395 182.395 212.469 183.406L209.828 186.297V187ZM218.772 187.109C220.538 187.109 221.553 185.613 221.553 183C221.553 180.406 220.522 178.891 218.772 178.891C217.022 178.891 215.991 180.406 215.991 183C215.991 185.613 217.006 187.109 218.772 187.109ZM218.772 186.25C217.608 186.25 216.928 185.082 216.928 183C216.928 180.922 217.616 179.734 218.772 179.734C219.928 179.734 220.616 180.922 220.616 183C220.616 185.082 219.936 186.25 218.772 186.25ZM223.12 187.063C223.507 187.063 223.824 186.746 223.824 186.359C223.824 185.973 223.507 185.656 223.12 185.656C222.734 185.656 222.417 185.973 222.417 186.359C222.417 186.746 222.734 187.063 223.12 187.063ZM227.467 187.109C229.232 187.109 230.248 185.613 230.248 183C230.248 180.406 229.217 178.891 227.467 178.891C225.717 178.891 224.685 180.406 224.685 183C224.685 185.613 225.701 187.109 227.467 187.109ZM227.467 186.25C226.303 186.25 225.623 185.082 225.623 183C225.623 180.922 226.31 179.734 227.467 179.734C228.623 179.734 229.31 180.922 229.31 183C229.31 185.082 228.631 186.25 227.467 186.25ZM231.407 187H236.454V186.141H232.735V186.078L234.532 184.156C235.907 182.684 236.313 181.996 236.313 181.109C236.313 179.875 235.313 178.891 233.907 178.891C232.504 178.891 231.438 179.844 231.438 181.25H232.36C232.36 180.34 232.95 179.734 233.876 179.734C234.743 179.734 235.407 180.266 235.407 181.109C235.407 181.848 234.973 182.395 234.047 183.406L231.407 186.297V187Z" fill="#B7C1CB"/>
<path d="M254.828 187H259.875V186.141H256.156V186.078L257.953 184.156C259.328 182.684 259.734 181.996 259.734 181.109C259.734 179.875 258.734 178.891 257.328 178.891C255.926 178.891 254.859 179.844 254.859 181.25H255.781C255.781 180.34 256.371 179.734 257.297 179.734C258.164 179.734 258.828 180.266 258.828 181.109C258.828 181.848 258.395 182.395 257.469 183.406L254.828 186.297V187ZM263.725 187.109C265.323 187.109 266.436 186.176 266.444 184.875C266.436 183.863 265.76 183.004 264.897 182.844V182.797C265.647 182.602 266.139 181.867 266.147 181.016C266.139 179.797 265.116 178.891 263.725 178.891C262.319 178.891 261.296 179.797 261.303 181.016C261.296 181.867 261.788 182.602 262.553 182.797V182.844C261.674 183.004 260.999 183.863 261.006 184.875C260.999 186.176 262.112 187.109 263.725 187.109ZM263.725 186.25C262.628 186.25 261.952 185.687 261.96 184.828C261.952 183.926 262.698 183.281 263.725 183.281C264.737 183.281 265.483 183.926 265.491 184.828C265.483 185.687 264.807 186.25 263.725 186.25ZM263.725 182.453C262.85 182.453 262.233 181.906 262.241 181.078C262.233 180.266 262.827 179.734 263.725 179.734C264.608 179.734 265.202 180.266 265.21 181.078C265.202 181.906 264.585 182.453 263.725 182.453ZM268.056 187.063C268.443 187.063 268.759 186.746 268.759 186.359C268.759 185.973 268.443 185.656 268.056 185.656C267.669 185.656 267.353 185.973 267.353 186.359C267.353 186.746 267.669 187.063 268.056 187.063ZM272.402 187.109C274.168 187.109 275.184 185.613 275.184 183C275.184 180.406 274.152 178.891 272.402 178.891C270.652 178.891 269.621 180.406 269.621 183C269.621 185.613 270.637 187.109 272.402 187.109ZM272.402 186.25C271.238 186.25 270.559 185.082 270.559 183C270.559 180.922 271.246 179.734 272.402 179.734C273.559 179.734 274.246 180.922 274.246 183C274.246 185.082 273.566 186.25 272.402 186.25ZM276.342 187H281.389V186.141H277.67V186.078L279.467 184.156C280.842 182.684 281.249 181.996 281.249 181.109C281.249 179.875 280.249 178.891 278.842 178.891C277.44 178.891 276.374 179.844 276.374 181.25H277.295C277.295 180.34 277.885 179.734 278.811 179.734C279.678 179.734 280.342 180.266 280.342 181.109C280.342 181.848 279.909 182.395 278.983 183.406L276.342 186.297V187Z" fill="#B7C1CB"/>
<path d="M275 162V38.5445C249.806 44.9857 239.086 116.375 234.797 128.184C231.367 137.631 225.863 138.203 223.541 137.309C204.779 134.088 204.779 78.2649 180.122 72.3605C155.464 66.4561 154.928 50.3533 140.455 36.9342C128.877 26.1989 117.763 47.4905 113.653 59.4782C110.616 69.8557 99.7162 90.7179 80.4189 91.1473C61.1216 91.5767 43.4324 110.65 37 120.133V162H275Z" fill="url(#paint0_linear_243_2771)" fill-opacity="0.2"/>
<path d="M36 122.017C44.8738 112.941 55.2915 91.8787 81.0135 91.8787C113.113 91.8787 113.166 35 133.611 35C151.213 35 154.53 69.4604 179.163 71.7011C206.944 74.2281 203.331 138 225.307 138C242.848 138 242.312 47.4848 275 39.1436" stroke="url(#paint1_linear_243_2771)" stroke-width="2"/>
<circle cx="37" cy="121" r="3" fill="white" stroke="#FE7A3E" stroke-width="2"/>
<circle cx="86" cy="91" r="3" fill="white" stroke="#FE7A3E" stroke-width="2"/>
<circle cx="178" cy="72" r="3" fill="white" stroke="#FE7A3E" stroke-width="2"/>
<circle cx="225" cy="138" r="3" fill="white" stroke="#FE7A3E" stroke-width="2"/>
<circle cx="133" cy="35" r="3" fill="white" stroke="#FE7A3E" stroke-width="2"/>
<circle cx="275" cy="39" r="3" fill="white" stroke="#FE7A3E" stroke-width="2"/>
<defs>
<linearGradient id="paint0_linear_243_2771" x1="156" y1="34" x2="156" y2="162" gradientUnits="userSpaceOnUse">
<stop stop-color="#FE7A3E"/>
<stop offset="1" stop-color="#FE7A3E" stop-opacity="0"/>
</linearGradient>
<linearGradient id="paint1_linear_243_2771" x1="36" y1="87.0649" x2="282.485" y2="52.7068" gradientUnits="userSpaceOnUse">
<stop stop-color="#EA4546"/>
<stop offset="1" stop-color="#F99C52"/>
</linearGradient>
</defs>
</svg>
