<svg width="31" height="27" viewBox="0 0 31 27" fill="none" xmlns="http://www.w3.org/2000/svg">
<path d="M4.0596 13.2462C3.51247 13.2462 3.05653 13.2462 2.60058 13.2462C2.05345 13.2462 1.59751 13.0826 1.41514 12.5918C1.23276 12.101 1.50632 11.7738 1.87108 11.4466C4.51554 9.15621 7.25118 6.78402 9.89564 4.49364C10.8075 3.67564 11.8106 2.85765 12.7225 2.03965C14.2727 0.64906 16.1876 0.64906 17.7378 2.12145C18.3762 2.69405 19.0145 3.26664 19.6528 3.92104C20.1999 2.69405 20.1999 2.61225 21.6589 2.61225C22.7532 2.61225 23.8474 2.61225 24.9417 2.61225C25.9448 2.61225 26.3095 2.93945 26.3095 3.83924C26.3095 5.55703 26.3095 7.35662 26.3095 9.07441C26.3095 9.3198 26.4919 9.647 26.6743 9.8924C27.3126 10.465 27.9509 11.0376 28.5892 11.5284C28.954 11.8556 29.1364 12.1828 28.954 12.5918C28.7716 13.0826 28.4069 13.2462 27.8597 13.2462C27.4038 13.2462 26.9478 13.2462 26.4007 13.2462C26.4007 13.4098 26.4007 13.6552 26.4007 13.8188C26.4007 14.8822 26.4007 15.9456 26.4007 17.009C26.4007 17.6633 25.9448 18.0723 25.3976 18.0723C24.7593 18.0723 24.3034 17.6633 24.3034 17.009C24.3034 15.9456 24.3034 14.964 24.3034 13.9006C24.3034 13.6552 24.3034 13.4916 24.3034 13.2462C18.285 13.2462 12.3577 13.2462 6.43049 13.2462C6.43049 13.4098 6.43049 13.6552 6.43049 13.8188C6.43049 16.4364 6.43049 19.0539 6.43049 21.6715C6.43049 23.2257 7.25118 23.9619 8.98376 23.9619C9.71327 23.9619 10.534 23.9619 11.3547 23.9619C11.3547 23.7165 11.3547 23.4711 11.3547 23.2257C11.3547 21.2625 11.3547 19.3811 11.3547 17.4179C11.3547 16.3546 11.7194 16.0274 12.9049 16.0274C14.6374 16.0274 16.2788 16.0274 18.0114 16.0274C19.1057 16.0274 19.4704 16.3546 19.4704 17.3362C19.4704 19.2993 19.4704 21.2625 19.4704 23.2257C19.4704 23.3893 19.4704 23.6347 19.4704 23.7983C20.5647 23.7983 21.6589 23.8801 22.7532 23.7983C23.5739 23.7165 24.2122 22.9803 24.3034 22.2441C24.3034 22.0805 24.3946 21.9169 24.3946 21.6715C24.4858 21.2625 25.0329 20.9353 25.4888 20.9353C26.036 20.9353 26.4919 21.3443 26.4919 21.8351C26.5831 23.8801 24.6681 25.6797 22.2061 25.7615C21.0206 25.7615 19.8352 25.7615 18.6497 25.7615C17.7378 25.7615 17.3731 25.4343 17.3731 24.6163C17.3731 22.5713 17.3731 20.6081 17.3731 18.5631C17.3731 18.3995 17.3731 18.1541 17.3731 17.9087C16.0964 17.9087 14.911 17.9087 13.5432 17.9087C13.5432 18.0723 13.5432 18.3177 13.5432 18.4813C13.5432 20.5263 13.5432 22.5713 13.5432 24.6163C13.5432 25.4343 13.1784 25.7615 12.2665 25.7615C10.8075 25.7615 9.34851 25.8433 7.8895 25.6797C5.51861 25.5161 4.0596 23.9619 4.0596 22.0805C4.0596 19.3811 4.0596 16.6818 4.0596 13.9824C4.0596 13.737 4.0596 13.5734 4.0596 13.2462ZM21.9325 4.57543C21.9325 5.06623 21.9325 5.55703 21.9325 5.96603C21.9325 6.45682 21.8413 6.86582 21.2942 7.11122C20.747 7.27482 20.2911 7.11122 19.9264 6.78402C18.7409 5.72063 17.4643 4.65723 16.1876 3.51204C15.3669 2.85765 15.0022 2.85765 14.1815 3.51204C11.2635 5.96603 8.34544 8.50181 5.51861 10.9558C5.42742 11.0376 5.33623 11.2012 5.15385 11.283C11.8106 11.283 18.4673 11.283 25.0329 11.283C24.121 10.7104 24.0298 9.8106 24.0298 8.91081C24.0298 7.68381 24.0298 6.37502 24.0298 5.14803C24.0298 4.98443 24.0298 4.73903 24.0298 4.57543C23.3003 4.57543 22.662 4.57543 21.9325 4.57543Z" fill="#FE7A3E"/>
</svg>
